<?xml version="1.0" encoding="utf-8"?>
<!-- Generator: Adobe Illustrator 16.0.0, SVG Export Plug-In . SVG Version: 6.00 Build 0)  -->
<!DOCTYPE svg PUBLIC "-//W3C//DTD SVG 1.0//EN" "http://www.w3.org/TR/2001/REC-SVG-20010904/DTD/svg10.dtd" [
	<!ENTITY ns_flows "http://ns.adobe.com/Flows/1.0/">
	<!ENTITY ns_extend "http://ns.adobe.com/Extensibility/1.0/">
	<!ENTITY ns_ai "http://ns.adobe.com/AdobeIllustrator/10.0/">
	<!ENTITY ns_graphs "http://ns.adobe.com/Graphs/1.0/">
]>
<svg version="1.0" xmlns:x="&ns_extend;" xmlns:i="&ns_ai;" xmlns:graph="&ns_graphs;"
	 xmlns="http://www.w3.org/2000/svg" xmlns:xlink="http://www.w3.org/1999/xlink" xmlns:a="http://ns.adobe.com/AdobeSVGViewerExtensions/3.0/"
	 x="0px" y="0px" width="500px" height="500px" viewBox="0 0 500 500" enable-background="new 0 0 500 500" xml:space="preserve">
<metadata><?xpacket begin="﻿" id="W5M0MpCehiHzreSzNTczkc9d"?>
<x:xmpmeta xmlns:x="adobe:ns:meta/" x:xmptk="Adobe XMP Core 5.3-c011 66.145661, 2012/02/06-14:56:27        ">
   <rdf:RDF xmlns:rdf="http://www.w3.org/1999/02/22-rdf-syntax-ns#">
      <rdf:Description rdf:about=""
            xmlns:dc="http://purl.org/dc/elements/1.1/">
         <dc:format>image/svg+xml</dc:format>
         <dc:title>
            <rdf:Alt>
               <rdf:li xml:lang="x-default">09. Young women spending time together</rdf:li>
            </rdf:Alt>
         </dc:title>
      </rdf:Description>
      <rdf:Description rdf:about=""
            xmlns:xmp="http://ns.adobe.com/xap/1.0/"
            xmlns:xmpGImg="http://ns.adobe.com/xap/1.0/g/img/">
         <xmp:MetadataDate>2020-06-24T17:08:04+05:30</xmp:MetadataDate>
         <xmp:ModifyDate>2020-06-24T17:08:04+05:30</xmp:ModifyDate>
         <xmp:CreateDate>2020-06-24T17:08:03+05:30</xmp:CreateDate>
         <xmp:CreatorTool>Adobe Illustrator CS6 (Windows)</xmp:CreatorTool>
         <xmp:Thumbnails>
            <rdf:Alt>
               <rdf:li rdf:parseType="Resource">
                  <xmpGImg:width>256</xmpGImg:width>
                  <xmpGImg:height>256</xmpGImg:height>
                  <xmpGImg:format>JPEG</xmpGImg:format>
                  <xmpGImg:image>/9j/4AAQSkZJRgABAgEASABIAAD/7QAsUGhvdG9zaG9wIDMuMAA4QklNA+0AAAAAABAASAAAAAEA&#xA;AQBIAAAAAQAB/+4ADkFkb2JlAGTAAAAAAf/bAIQABgQEBAUEBgUFBgkGBQYJCwgGBggLDAoKCwoK&#xA;DBAMDAwMDAwQDA4PEA8ODBMTFBQTExwbGxscHx8fHx8fHx8fHwEHBwcNDA0YEBAYGhURFRofHx8f&#xA;Hx8fHx8fHx8fHx8fHx8fHx8fHx8fHx8fHx8fHx8fHx8fHx8fHx8fHx8fHx8f/8AAEQgBAAEAAwER&#xA;AAIRAQMRAf/EAaIAAAAHAQEBAQEAAAAAAAAAAAQFAwIGAQAHCAkKCwEAAgIDAQEBAQEAAAAAAAAA&#xA;AQACAwQFBgcICQoLEAACAQMDAgQCBgcDBAIGAnMBAgMRBAAFIRIxQVEGE2EicYEUMpGhBxWxQiPB&#xA;UtHhMxZi8CRygvElQzRTkqKyY3PCNUQnk6OzNhdUZHTD0uIIJoMJChgZhJRFRqS0VtNVKBry4/PE&#xA;1OT0ZXWFlaW1xdXl9WZ2hpamtsbW5vY3R1dnd4eXp7fH1+f3OEhYaHiImKi4yNjo+Ck5SVlpeYmZ&#xA;qbnJ2en5KjpKWmp6ipqqusra6voRAAICAQIDBQUEBQYECAMDbQEAAhEDBCESMUEFURNhIgZxgZEy&#xA;obHwFMHR4SNCFVJicvEzJDRDghaSUyWiY7LCB3PSNeJEgxdUkwgJChgZJjZFGidkdFU38qOzwygp&#xA;0+PzhJSktMTU5PRldYWVpbXF1eX1RlZmdoaWprbG1ub2R1dnd4eXp7fH1+f3OEhYaHiImKi4yNjo&#xA;+DlJWWl5iZmpucnZ6fkqOkpaanqKmqq6ytrq+v/aAAwDAQACEQMRAD8A9U4q7FXYq7FXYq7FXYq7&#xA;FXYq7FXYq7FXYq7FXYq7FXYq7FXYq7FXYq7FXYq7FXYq7FXYq7FXYq7FXYq7FXYq7FXYq7FXYq7F&#xA;XYq7FXYq7FXYq7FXYq7FXYq7FXYq7FXYq7FXYq7FXYq7FXYq7FXYq7FXYq7FXYq7FXYq7FXYq7FX&#xA;Yq7FXYq7FXYq7FXYq7FXYq7FXYq7FXYq7FXYq7FXYq7FXYq7FXYq7FXYq7FXYq7FXYq7FXYq7FXY&#xA;q7FXYq7FXYq7FVks8MQBlkWMHoWIX9eEAnkgyA5qf6QsP+WmL/g1/rh4JdzHxI94d+kLD/lpi/4N&#xA;f648Eu5fEj3h36QsP+WmL/g1/rjwS7l8SPeHfpCw/wCWmL/g1/rjwS7l8SPeG0vbNzRJ42PgHU/q&#xA;OPAe5InHvX+tD/vxfvGDhKeIKbahYLcx2rXMQuZUeWKAuokaOMqruq1qVUyIGPbkPHHhK8QVPWh/&#xA;34v3jHhK8Qd60P8AvxfvGPCV4g71of8Afi/eMeErxB3rQ/78X7xjwleIO9aH/fi/eMeErxB3rQ/7&#xA;8X7xjwleIO9aH/fi/eMeErxB3rQ/zr94x4SvEF+BLXNOXHkOXhXfDSLDeBLsVdirsVdirsVdirsV&#xA;dirsVdirsVdirsVY/r6Ti6DlWaIqApAqB4jMvARTh6gG0qUsB9hup7e+XOO16m9OLfdirmeqkcW6&#xA;eGFDfqf5LfdgSidNkDXBoD0O5HgcjPkzx81vmXzX5d8sac2o67fRWNqteLSH4nI34xoKu7eygnKg&#xA;G98+at/zlFZN58sdWsdGkk0axtrmyPqyBLiRLuS3keUKOSKVNqvFSTXepHafBsy4Xuvkr8w/KXnO&#xA;x+taDfLO6AGe0f4LiKv+/IjuPDkKqexyBFMSGSYEIS51nSLWO4kub63gjtF5XTySoixLWlZCxHEf&#xA;PFLtL1nSNWtvrWlX1vqFty4+vaypNHyG9OUZYV3xVF4odirsVdiqMtXkFvJT9n7P3ZXIbt0CaKEy&#xA;xpTO3LGBC3WmUS5uTHkqZFk7FXYq7FXYq7FXYq7FXYq7FXYq7FXYq7FXYqk3mC1jESXCKBLy4nty&#xA;BFfDrtmRgkbpxtRAVaRky/yj/gj/AEzKcR1Zf5V/4I/0xVEaVz9Y1AoQxqDXqa+GQycmePmim0fS&#xA;H1A6k9lBJflBEbp4kaTgvIheTAmg5n78oItyBIhMUuZUQIlFRRRVCgAD2AwcAT4hSqfTNAnure7l&#xA;tLRrm0bnbTenHzjahWqsBUGjHJCNMTO+rxj/AJyS/MbW9MW28r6FdGzkvIPrN/eRGkhiZ2RIkdTV&#xA;KmNi9N6UHSuTjFMd3zEbR4w0lxIFj/bNalt65YzZz+Sn5gXnlf8AMCwcy8NJ1SWOy1GFm4xiOVgi&#xA;SmuwMTENXwqO+RkNkEPtf1of9+L94yui1WFVEZ2Cr1ORJpkBaOSxiA+KrHv2yozLcMYXfU7f+U/e&#xA;ceMp8MKqoqLxUUA7ZElkBSmbWAty47+HbDxlHAFXIsnYq7FXYq7FXYq7FXYq7FXYqhr2/gtFUyVL&#xA;N9lV67ZOEDJrnkEebrLULe8iaSOq8CQ6tsRT+G2M4GJTDIJDZCv5gtVYhUdgP2thXLBgLUdQFjeY&#xA;7dRX0n/DH8uUfmR3Iiz1P627LFHTiK1ZqfqByM8fDzbIZeLki6z/AMi/8Ef+acr2bN1kltHPT11D&#xA;gdE7A/xwiVckGIPNZ+jLD/fK4fEl3o8KPcgNZs7aG1VoowjFwCR4UOW4ZkndpzQAGyU6PUyAlj9k&#xA;im1Nj8syMrjYuabZQ3uxVLkutAsrNbnWLqK0jluEtYJJpBGHll2SNakVZj2w5ZkHZcOMSG754/5y&#xA;U/LjzbdfmHBqelrHFos2nwob65cRQRypI6tEzmtXPJWA6nltWhymWp4RZczDpuLYbMU07/nH7VGn&#xA;tpvMmpCe2lYAW2mxyy8uXQvK6r6aeJ45g5O07FRHzdni7MAIMzt5PNNZ8m+afLet3FldwM/6OaOZ&#xA;5ovjj9IyUjkJX7Kvx2rQ5m4dRGYFHm4ObSTgTYuuvk/QPXLOC2VRCpAZWrUk9PnmThmZc3WZ4CPJ&#xA;MrNgJxXvUD55TPk24+aY5S5DsVdirsVdirsVdirsVdirsVdirsVdirsVS3WNLa84SR09RBTiTSoy&#xA;7Fk4ebRmxcW4a0vSBbQzLLTlOOLBSdhv+O+OTLZFdFxYeEG+qWSeXbwS0QK6AH4uVK9KbHLhni0H&#xA;TytCXdibVgtwoTl9kk7Gnga5ZGYlya5wMeaaeXKerLTpwFPvynUcg36bmU9zFct2KuxVLdf/AN40&#xA;/wCMg/4i2XYObRqPpSLSPS9YUI5cTUA++ZWVxMXNN8ob0JqepRWEId1Lsxoijbp4nMfU6gYhZ3cr&#xA;SaU5pUDVPEdI8g+efzJ89PqPm6JtO8s6Yf8AQrRGJUK9GUW7dHeVKGSbt9nb7IMp8dS718LwyY9Q&#xA;d2T/AJv+e9I0/wAy6F+X8N09oLm2cyvDL6bxOQq2cYlblxZ+DjffceOY+qxk4+KrouZoZgZaJoS2&#xA;tBSSJqkh0e50u8QW1W+tzmluWiA9NlmSTnIW5V6djWhzUUIjiEt+6neAEyqQ9Pfbzf8ANjW5r7zV&#xA;pXk3TDC9/rTR2mpOi1lVZZEjhVWrQci77MDtvtXfP7OwX6z05ON2nrDCPhx/iG/fXT9L6j8y9I/9&#xA;V/4ZuNO8tqVXAqIS+lUUIDe565AwDYMhXfpB/wCQYPDT4rv0g/8AIMfDXxXfpB/5Bj4a+K79IP8A&#xA;yDHw18VEwTLKlRsR1GQlGmyMrVMiydirsVdirsVdirsVdirsVdirsVSrzGyfUAlOUjOOAFK7dTvl&#xA;+Aepx9QRwqHl3+9l2p8I2+nJ6jkGGn5lPMxXLdirsVS3X/8AeNP+Mg/4i2XYObRqPpSLR+QkAKkf&#xA;C2+1OvzzKyuJi5pvlDel995e0rUb+3u7xHklgRoYx6six8JHRmrGrBGNYxuRlWXFGY9QtyNPnnjl&#xA;cTSrrWu6X5Q8uazrN7SOw0tDN6YovKiD0407VdiEX3OJF0AiJ3JPe+HNI8vee/zt/MO+ls+LXNzI&#xA;brUL6Ylbe2irxQFgCaKAEjQAk08ASJykAK6MgHqPk3zNc6Z5Zis9R15pbm1Lx3bXros0ToxUxPzZ&#xA;mXhSm7Zo9TgPiGo/J7Hs6WHwAZSBPWzy8k2/JL8r7e+/Me4/MK6eWbSUkefTXmiKLNcyCnOMsxZ4&#xA;4uRo/EAtSlaHNtgjIYwCKLzPaE8ZzyMDcS+gvMhBWIjcFHp+GZOndXqeiuFB/aA+df6ZFNNGeDjx&#xA;MikmgUDbf6QMaK8QawodiraqzGigk+AxtIC/6vP/ACH7sHEE8JRtpC0aHl9pu2VTlbdCNK+QZuxV&#xA;2KuxV2KuxV2KuxVZPPHBE0kh4ovXCASaCJSAFlj9xr15KT6IEUdSB3Y0NNyRmVHABzcOWokeWyG/&#xA;SOpcgfXalDty/syfhx7mvxZd6hNPO5MkhLt4sxJ/VkwAOTEknmm/l7++l/1R+vKM/IORp+ZTzMVy&#xA;3Yq7FUt1/wD3jT/jIP8AiLZdg5tGo+lJNIJLjbbiR9xpmTlcTEwn8yvz38q+Sbm60pklvdehgWWO&#xA;1jFIhJJuiSyV+H4SHOx+H5jKxG3JAeV6V/zlp5qa7X65oFlcW4+0kEksDfPm3rj/AIXCYMgEz/N7&#xA;81IvzO/LqHQvKtrMuvX2pWcV9o7MPVKMr0dGFFeH1ggLmnE05BaitfBwhlxbvY/yl/LrQ/yu8iJa&#xA;Tzwx3LKLrXNUkYRo8xG9XfjSOMfClaePUnKZGy2BObbRPyw80TvrdrYaJrk4fi+pxQ2l2/NR0Myh&#xA;zyAPjjZC7MhmjQywCgABNB7AV/hiDsUHmlPmTkWjFNuDU+eZGncbUquBVksbvVQwCEUYUqfoNcIK&#xA;CLX4EuxVM7WNUhUjqwqT88ombLkQFBVyLN2KuxV2KuxV2KuxV2KuxV2KpB5hmd50gViqoOTAU3Y/&#xA;OvQZlYI7W4eolvSUCMgUDt3P7PffwzIcZoh+YXm1CCf2e1Pb3xVsxkihdqf7H+mKo3T9RSydiQHL&#xA;AChYKf1ZXkx8TdjycKO/xNH/AL5H/Iwf0yr8t5tv5kdzv8TR/wC+R/yMH9Mfy3mv5kdzv8TR/wC+&#xA;R/yMH9Mfy3mv5kdyG1DWY7uFY+ASjBq8wegI8B45PHh4TbDJmEhSD0wOlWSshCMVj2FT1pU5PK1Y&#xA;ub4Uml82eY9e1W7l066vdUe5eTVIUt5JDFPI7VV1RT6dGBAG3SnbKjmhEbmnYwwTn9IJ9ypd6N5r&#xA;soJpJdCvLeC3DNNMbWcRqqCrMW4ceIArXpgGpxnlIM5aTKOcZbeSS2eqXtvdxahZXMtvdxtzhuYX&#xA;aORGHdWUhlPyy7m46a+afzD86a/ZRQa7rV3qVvbkehbzys0YcAgOVrQtQn4jv75EgR3CRuzX/nFT&#xA;zdqum/mxaabHKxstZguIbu36Ixghe4jYjpyUx7NSu5Hc5TL1c2XJ9qrdPJdRs2wBoB4V2yPDQRxW&#xA;URqC/CjeBI+/BjRlQOWtLsVdirsVRltdqqBJNqdGyuUO5thPoUR9Zg/nGQ4S2cYbWeFjQOK/PBwl&#xA;RIL8DJ2KuxV2KuxV2KuxV2Ksa8wRxLf85Av7xQQTTtt3+WZmA+lwdQPUlSfVuJrwrU9aeJy7doXf&#xA;6LX/AHXX6Md12WyfVuBpwr7Ux3XZd/ov+R+GO67O/wBF/wAj8Md12a/0bkPsUofDHddm/wDRf8j8&#xA;Md12d/ov+R+GO67InSfS9c8ePKjdKVpyyGTkzx83jWmTWJ/MXzcunoF1L9MRrq5aZoQYVjZoWRFj&#xA;lEm3IFTwrvU+Oh14PFvy6PVdm8PhXHmPq36dGU3tvMNeNtcwqbR4GguYpZ5KiQgP6b2ZQx/FEwPI&#xA;vWh+zTfNeQYjfY+79LsY+s3HePv/AEPm38z/AC95S8v3kljpZY6jNP8AWnjFRHBbyA0hA+z9ocl7&#xA;069s3ugyZJiz9Nfa6jtPDhxemP8AeE37hXL5sh/JD8tvy/8APYmstXumk1GJmknghlaGWKEqUVkB&#xA;HGQ8viJAYLsD4G3LPIclD6HFhHCMBJP7y3tf5cf84vaF5K89weaLLW5b+0t4pkt7K4hUSLJMvp8z&#xA;MjKDRGYf3YxMi41W9deynSQlVJQE0I3NMmJBrMSjL0Vt6nqCDkIc2WTkwbULpri6dixKAkIOwAzP&#xA;iKDrpGyhskxTrQLpm527sSAOUYPYdCMpyDq3Yz0TjKm12KuxV2Kq8F08ZAb4k8PD5ZCULZxnSYgg&#xA;gEbg9DlLkOxV2KuxV2KuxV2KoTUrEXcHEbSJvG38D88sxz4S15cfEGMTJPC5SWF0YdjT8N8zAQeT&#xA;gEEc1Il+Ybg1ACP2e9Pf2yTFsyECpRqf7H+uKt82/kb/AIX+uBLQZgPsN1P8vj88KHeo1acG/wCF&#xA;/rgVzMxUjg24/wAn+uFW+bfyN/wv9cCUTpjlrg/CQKEVNOxp2ORnyZ4+byf8yPyw81af50ufzA8k&#xA;3Nq093BTXdEvWKR3CQoAzxt0rwQE1pQitTUjMLPhjkFF2Ol1EsctklTzxpWleSY722tbbSvrFv8A&#xA;WIojJzi9aWPkFBCq77kDYVpmk8CUsnDuaL2HpjiGWUgLF/GvteA+ffJ/5k6bw8yea7GW3TWmDxXT&#xA;PGedVDKpRGLxUSgCOqkDamb6EOAUOTyGTKckjKW5KI/Lr8n/ADn5w1O3+qR/orT+Qd9ZvKwwoAa8&#xA;oyaNI3gE79SOuT4T3NfEH3d5d0bTvL3ly002DVZ9Rks4wj313cG4nmYmrM7szHqdgNgNhkADe4QS&#xA;EYmvwrIkRmjkdzxVagmv0ZI4mPiO1fUXWxkOy7UUDxOww48e7DLk2YfmY4TsVROnz+heRyH7NaN8&#xA;jtkZCwyiaLKcxnJS/VdattOCeoCzyHZQQNq03r74oJRNleQXkAmhNVOxB6gjscUhXxV2Ko6wkJRk&#xA;P7O4+RyrIG7GUVlba7FXYq7FXYq7FXYqteOOQcZFDr4MAR+OEGkEA81E6dYmtYE38BT9WS8SXex8&#xA;KPclmpaCDGz2hoRuYjvX/Vy7Hm72jJg6hJqP4j7v7cyHFaHI9x939uKuo1a1H3f24q48gCajb2/t&#xA;xVujeI+7+3FUTpilZyCa7Menia5GfJnj5rPLWlnU4ta1TUyzRao81lZxkkCLT4awjh4eu4eYsOoK&#xA;fyjMSct3OhGgx1fyB8gXOs+X9bW1eCLRlrDpgJa3kUEvB6ivU1jJqf5v2q4TOrrqyMjICzy5PnP/&#xA;AJyX8xas350T2wmeGPQYrcaXxJUIzolw0q9uXN6ch/KPDLsfJrLy6183ebdNvpbmz1i7t5J5HllM&#xA;UzorvISzFkB4mrGu4ye4QQCyGH84vzRWEouuScWAFWigZqDwZoy345LiLDgCCg/Mnzg3mLS9V1TV&#xA;Lm8Om3kF4kEjn0uUMgf+7FE3pTpkSSU8IfdXmGRwkMYB4Elie1RsP144g4+UpJlzS7FXYqym0uVN&#xA;rCZWCyMg2Y7ntX6cxZbFyonZjPnKJ3uSo6tAOB8CC1PxyJRJEeTrrm0qA/BIiyqPw/42xCxZPhZO&#xA;xVFWA/eMe1P45XkbcXNHZU3OxV2KuxV2KuxV2KuxV2KuxVjGs23pX78WKrIA4Ap369vEZm4pXFwM&#xA;0akgBGw/bb/hf6ZY1O4tyA5t0P8AL/TChxjYinNv+F/pgS3wb+dv+F/piqpZzGETTuxZYkkYjbon&#xA;yHtleaXDEnubtPAzmI9+ycyXkcWmG3jjCRJEI14nYIBx2+S5jwhuHLnMm7RZ1JQtFjIPbfbBwLxv&#xA;mr8+fyzh8y/mdo97FdLbCeyP6XoBz4QyERstftPIHKb/AGQtd+mV59WMQ83L0OiOeXdF5T+d/wCX&#xA;mmeUptKl0lXFndQvHIZGLsZ4WBLEnpyWQbDbbI6HVSyg8XMM9fpY4iOHkXn8ZBRSOhAzZOuUrldg&#xA;30YCr9Bvy/vHvfIflu8c8pLjS7KVz/lPboW/E5UWsp8wqpHiKYEJJo9pPHfOXWgiBVzUdT0y6chT&#xA;TCJtNof96bj5r/xEZUeTaOZSrX4pxIs8VS8Y5KgOzgbMn0jp70yBUpZq0yXNnbTq3JRsreKuKr91&#xA;MUFR8nOkc5LsEjiikVmJoAsbUqSe3w4QsWP6b/zkb5F1Pztb+V9PjurgXM/1SLVVVPqzTnZQvxc2&#xA;RiKcuP4b4OMW28Bq3qmSYJjZxFI6nq2/0dspmbLkYxQV8gzdirsVdirsVdirsVdirsVdirF9buYZ&#xA;b9xUH0wI608Nz+JzNwxqLgZ5XJAK0VN6dT298taXcofb7sVczRcTSlaeGKu5Q+33YqhtQvoLa0lp&#xA;SsilNh2P2v6Zru0s3BjrrJ2vZGnOTNfSP4DJtCgMnlq2+sxcZWt+LhvtUAIFa96ZXgMuGNt+sETl&#xA;lw8rKLkt0eySYALJwVjTYGoFcvB3pxSNniP5ltcf8rF00R1LGCFF2/ZaSQN+BOavX/X8Hc9lmgD/&#xA;AEnn/wDzk1LAPK2lw9Z/rvJfEL6Tg7+5pj2V9Z9zPtX6B73gNuawp8s34dAXXA/dn2xKvuH/AJx+&#xA;u3uvye8tyualYZoR06Q3MsQ6eyZUebWXoWBCEs/96rz/AF1/4iMlLkGMeZXW0yPd3SA7qVr/AMDT&#xA;EjYKDuV93B60JUfaG6/PIEMmLTRlPrFoRQMDPCPkf3i/Q2/+yyLF5D+dPme+0byNPY2D8LjW7hrB&#xA;2BowgYmSah/yuIQ/5LHBI7M8QssC/wCcbvIt75k/MO11KONv0R5bIup5gNmnNfRQHxZxy/1Vp4ZC&#xA;PNvlyfa8FlQhpNz2X+uSlPuYxx96LyttdirsVdirsVdirsVdirTOiCrMFHiTTEBBNKYurZmCrKjM&#xA;eihgSaeAGS4T3I4x3rZ5yCUUEeLf0xAUlBG2tyamJK/6oyfEe9hwDuWS2NtIpHAIezKKU+7JDIQx&#xA;ljBSF+ayEFD8NQenj88yg4RaMjAV4Nt/q/1xQtkuFiXlIpUe5X+uQyZIwFyNBtxYp5DURZS/T4Yt&#xA;S1XncEC0gJYI9ByatVUg9hWpzTQH5jIckvpHJ6GcvymEY4/3kuZ7vxyDPLe4gk0kXEMiywPEZElQ&#xA;hlZSCQVYbEHM47ydWNornBj04K3URqv00AxG8knk8x846baDzNb63LKp+q2hiaOo+Fg7FWPhVXbr&#xA;ms7S+oO47JBIPvfOP51ajca3Fb+krSST3scVpEoqSODqoA8WLZPs2NTPuR2nO4j3sZ/MvySvkvzK&#xA;ugglnhsrOS4YnkrTyQIZyhoPg9XlxzeR5Oju2Izf3TYSl9n/APOMt36/5O6RFw4/VZbuGta8q3Mk&#xA;tem395TKZc2svU8CEJZ/71Xn+uv/ABEZKXIMY8yiVhiRmdUVWb7TAAE/M4LZUqKrMwVRUnpgJSAk&#xA;/mjTTaiG9XcI49Q9gG+F/o4nl9GViVpnCnzB+eq32reYtC8s6ZEbjUppJ1gt06tJczeivyoIj8uV&#xA;cjMssIfUH5Wfl7p/kHybZ6BalZJ0Hq6hdgU9e5cD1H+W3Ff8kDIN7LcVdirsVdirsVdirsVU7i4h&#xA;t4zJK3FR08SfAZKMSeTGUgBZSG81u8lYrbkQx9tqsfpr+rMmGEDm4k85PLZLDJcSku7hmqQSQSdj&#xA;Txy6gGiyUVpKyfpOBiw25CgHiPn7ZDL9JbMP1BkFx/en6MxA5xUsKHYqx249T6xIAy0LN2Pj88zI&#xA;8nXy5l41+aX/ADkFoXlq4l0fSpP0lqkVVufq9BHE3eMynkOXjxBp065i6iUz6YGvP9Tm6XHAeqYv&#xA;uH63hesfnX531J2aGSKxVv2kX1ZSPd5ef4AZjR0ETvK5e9zpa6QFRqI8kpsrjz35vv10+O9vNQlZ&#xA;aMjzOIkj7lhUIq7/AMMuljxYhZADUJ5cpoEl6l5X/KHVtJt/+UnvrGV93j0uR7dAf9flVun8ozBn&#xA;2jv6YuZDs7b1FkB8kazNPG9/518xX8Kkepb3GoTMrpWrISGDAN7HKTr5dAG6Ohhe9lk8Wm+XrLy9&#xA;LpdjarYpJUlYDRi7UqzMSzMzUoS1a5hTnKUrJt2kYxjjqOw7kt8n+RbXVPzH0KVuUlnoizapcB6E&#xA;eshSO0GwFD6jtIv/ABjObPs3fiLpO05UAGC/85VW3o/mdFJSn1nTbeWta1pJLHX/AJJ5uYcnUxeN&#xA;S/3bfLJFk+xv+cW//JSWn/MXdf8AJzKZMC9bwMUJZ/71Xn+uv/ERkpcgxjzKLyLJG2EYoZD16DKs&#xA;h6N2MdWNfmkt4PLXqwXD28MUy/WigJrG4KUNCNuTDNdrpSjC4mqLs9BGEp8Mhdh5v5B0SxvfzBsd&#xA;WVln1OD1Ha6eL94I+BVgHJJHLlx28cwNJmyTyAGRdhrMGKGIkRAL3jN46F2KuxV2KuxV2KuxVxNB&#xA;+oYqk1/o+oXkxkadV3+FATQCvyzIhljEcnGnhlI3ah/hu5/38v3n+mS/MDuYflj3tDy1cjpMvj1P&#xA;f6MP5gdy/lj3q9joVzb3kU7ShkStVqamooO2QnmBFMoYCDaPuP70/RlQcgqWFDsVYH59e+t/KnmK&#xA;4093S/hsL2S0ZD8QmWFzGV9+QGZd+lwa9Xxfn/GC7ktv3JPc5TEWXOkVZmCipywmmAD6X/LLyrDo&#xA;Hle2BQC/vUW4vXI+Lk4qqf7BTT518c53V5zkn5B3+lw8EPMstzGcla8iIKk/RgVLNQv7Wzt5r28l&#xA;WC2iBeWVzRVAxjEyNDmspCIssr/5x81G21zQNX8xxqAb2/a1h3HNbW0jURI9OhLyySU7c6Z0Onw+&#xA;HAR6vOavN4k76PKv+cuLbj5z0a5oP3uneny7n055Gp/yUzLg0ReESf3bfI5Msn2L/wA4t/8AkpLT&#xA;/mLuv+TmUyYF63gYsQ1s+ZbjU7m10FUlul4uIZJ2tUYUUMWkVJTsDsOOarUzyTzeGJcIA6O50kMe&#xA;PB4hiJEnql36K/OX/q32f/cYn/7JMh+Vyf6pL7f1s/zmL/Uo/Z+pKZL/APPSHVBp6eVpXiLqn16P&#xA;WF+rUanx1MavxHf4K+2P5TJ/qkvt/Wn87j/1KP2fqTS50b84rqB7e506yngk2eKTWJmVgDXcG0pk&#xA;ZaGZFGZ/HxTHXwBsYwD+PJKL/S/MGgWbz3UKaPqZWqHTrp5AYiwFGkCW53I+zx7ZgZ8RwS2PT3Oy&#xA;0+aOojZjyPvSP/FXmf8A6vF7/wBJMv8AzVlP5jJ/OPzLd+Xx/wA2PyD1L8qPMmp6tY3ttqErXD2T&#xA;RenO5q5WUN8LHvTh1Pjm27PzymCJb06btLBGBBjtbO82DrXYq7FXYq7FWhux8F2HzwobwJdirsVd&#xA;iqEuP70/RkwxKlhQ7FWM3qQSyzRyR8435q6lSQQTQg7ZmR5Ovlzfn5rWljSdb1HTA4kFldTW4kBq&#xA;GEMhQEEePHKwKc27ZF+UnkWDzx50i0m4uPq9nDDJdXBClmdYyoCKB/Mziu4+GvfI1xGllPgFvc7/&#xA;AEP854tTntdO8tWuo20bH0bxLqKFZF/m4TSIy/I/jmuPZQH8Tnx7WvowyPz358k8wny6mgW51gXL&#xA;WRtfrC/70K5jKc+Xp/aFK8qe+P8AJUf5zZ/KZ7ky8x2//OQGhaJfaxqXl6wtNPskEksquk7qrOqb&#xA;LFcyE05VJ40oCcI7Nx95a/5SmegeKa75m8x69xOq3z3CoapDskQIqKhECrWh60rmdi08Mf0hxsme&#xA;U/qL3f8A5w682+nfa35TnkPGdF1KyQkBQ8dIrgCu5ZlMZ+SnJlomET/zl/b8dR8sXPGnqQ3cfOvX&#xA;02iNKe3qZKCIvneT+7b5HJsn2L/zi3/5KS0/5i7r/k5lMmBet4GKUaP/AMppc/8AGE/qTNTL/Gj/&#xA;AFf1O6j/AImP6362X5muA7FXYq82/NroP+Ycf8nDmm7T+se53vZX0H3vJ81jtHqP5Jf9Lr/o2/5m&#xA;5tuy/wCL4fpdN2t/D8f0PUM2zp3Yq7FXYq7FWk+yD0rvT574SgN4EuxV2KuxVCXH96foyYYlSwod&#xA;irzL82vOQ8o+T9W1ZTxvKNBp9aGtzKeMZp34/bI8BmWOThAXJ8KzysaliWdySWO5NepOVyLlxD0X&#xA;/nHC/wDqv5taVHWi3cVzA3b/AHQ8g+9oxgx82OYel9r6a3Kc7EbEb07GmWz5OLj5vOofLHl9P+ci&#xA;Z3WxiBGgJqo22+vSX0kTXFOnMoOvjv13yqy5PR6Vr+kW+taHqGkXP9xqFtLaynrRZkKE/RXAxfnX&#xA;f2VzYX1zY3Senc2krwTp/LJGxVh9BGXNicflz5rbyj5+0XzBUrBaXC/W6DkTbygxXAA8fSdqe+RI&#xA;XmH0B/zl9HHJYeVblfiAkvFRwarSRYW/Hhggwi+aZP7tvkcsZvsX/nFv/wAlJaf8xd1/ycymTAvW&#xA;8DFjD6fqN/5nuYLDVJtIn4cvrdvHBK/EBapxuY5kof8AVrmql/jR/q/qdzH/ABQf1v1ph/g7zl/1&#xA;Pmp/9Iek/wDZHmY4KTTeSfzhOqhofzHddJ5qTE+laebj09uS+oIwnLwPD6MVTn/B3nL/AKnzU/8A&#xA;pD0n/sjxViXnzTNU061eLUdYn1qV4wyXFzFbQsi86cALaKBCKiu4rmm7T+oe53vZX0H3vOs1jtHq&#xA;P5Jf9Lr/AKNv+Zubbsv+L4fpdN2t/D8f0PUM2zp3Yq7FXYq7FWk+wvyGEoDeBLsVdirsVQlx/en6&#xA;MmGJUsKHYq+Ov+cqPO66j5qi8sW0we10flLeBehupdwp619OOn0sRmTYpohDmWGWH5Qapd/lPqXn&#xA;ybmjwyI+n2op+8tEcpPM3tVqr02UnoRkCLFs/EqXCkX5U6gbD8yfLVzy4j9IW8TN4LM4iYncdnyM&#xA;ebPILiX3zpius5BYEUY7CnU18cvycnCx82Hx/wDrQ0//AICMP/dTlylyOj0TFi+Jv+ckPLH6D/NT&#xA;UZI1422sImpQ/OWqzffNG5+nLInZsDyuYVWvhhKQ9o84+aj5n/IPyfPJJyvNFvpNJvARQ1igrCw3&#xA;NawBKk9WrgjzRW7yST+7b5HJlL7E/wCcWmU/lJagEErd3QI8DzrlMmEnrmBilGj/APKaXP8AxhP6&#xA;kzUy/wAaP9X9Tuo/4mP6362X5muA7FXYq82/NroP+Ycf8nDmm7T+se53vZX0H3vJ81jtHpH5OTPE&#xA;2rFe/wBXqPH+9zc9kRvi+H6XR9syrg+P6Hq0MqypyH0jwObQinUxla/Al2KuxV2KtL0p4bfR2xQG&#xA;8UuxV2KuxVCXH96foyYYlSwoSXzr5qsfKnlPVPMV7QwabbtKEJI9ST7MUQIBoZJGVAffFXwt+XPk&#xA;/VfzN/MJhfO7wzzPqGvXoopCPJzkoaUDys3Fdtq1pQHLYxssck+EPtGXQtKk0Z9FMAXTHtjZm1Ql&#xA;UEBT0/TAB2HDbMhwL3t8F6tp195U83XFjMD9b0a9K16cjBJVWHswAIzG5F2INh+g2hyxT8LiJi8c&#xA;qFo2qSCpNVO/tl+Tk4OPmxOP/wBaGn/8BGH/ALqcuUuR0eiYsXgX/OXXlc3flfSvMcS1k0u4a2uC&#xA;B/um6AoxPgskYA/1snAsovlJhUEeOTZovTtVuk0y40kGtrPNFdMp7SQJJGKfNZjX5DBFJWzGkbZI&#xA;ofXP/OJjKfyumAIJXU7gMB2Ppwnf78qkwk9oyLFjD6DpeueZ7my1OJprbh6nBJZYTyULQ8omRu/j&#xA;mql/jR/q/qdzH/FB/W/WmH/KpfIX/LBN/wBJt7/1WzMcFIZf+cevIUmuDVvW1NSJFk+prfS+j8IA&#xA;4VNZeJpv+8xVPv8AlUvkL/lgm/6Tb3/qtirEvPnlvR9AtXtdKheGGWMSuryyzEtz415TPIw2XoDm&#xA;m7T+oe53vZX0H3vOs1jtHov5Rf8AS2/6N/8Ambm67H/i+H6XQ9t/wfH9D0yzkKzBezbHNxMbOlxn&#xA;dMMpb3Yq7FXYq0djyH0/LFDvUT+YffjS27mn8w+/Glt3qJ/MPvxpbcHQmgYE/PGk2hbj+9P0ZMMS&#xA;pYUPLvzvsdI82eW38sSXTRAyrPLcxMAI3irxD1+FhU/ED+B3zCz6vhkBHcu30XZvHEyn6Y1t+tDf&#xA;lf8AllpX5faFJpccn13UJ5TLf35h4GRhsigfGQka7AcjuSe+bjGKDzeaVyPczFhDxNI96fyH+mTa&#xA;nyl/zlP5YTT/ADraa5BHwt9atwJTQj/SLWkbf8kzH+OUZRu5mnlYp9I/k5qkeqeRPLt6N5X06FJX&#xA;pWskSCKQ8qfzockT6WmqmVCP/wBaGn/8BGH/ALqcuVt3R6JixSDz/wCWU80eS9Y0FgC1/bOkBPQT&#xA;L8cLGv8ALKqnCCkPz0uA8LvE6lJUJV0IoVINCCMsJbAstGCyEnpx/iMASVaaYMOK9O5yRKH1x/zi&#xA;G1fy01Efy6xOP+na2P8AHK5MJPb8ixY2utaNo/mm5vNXv7fTrThw+sXcqQR82C0XnIVWpp0zVS/x&#xA;o/1f1O5j/ig/rfrTb/lZ/wCWv/U26N/3ELX/AKqZmOC7/lZ/5a/9Tbo3/cQtf+qmKu/5Wf8Alr/1&#xA;Nujf9xC1/wCqmKsN/MLX9B1u3a40bUrXU7eOIRyTWc0dwivzrxZo2YA0INM03af1j3O97K+g+95t&#xA;msdo9F/KL/pbf9G//M3N12P/ABfD9Loe2/4Pj+h6Rb/36fMZupcnRx5ppmO5LsVdirsVdiqV6ppH&#xA;r1mtwBN+0nQN/bl+PLWxcfLhvcc0gdJUYo68WHUGoP6sygbcMghYgdRSg6k9fE18MVRmksf0nApH&#xA;Uk9fAf25DL9JbMP1BP7j+9P0ZiBzixH8yPKmt+Z/Lp0zR9YfR7gyrJJKqkrKig/unKkMqk0O3hQg&#xA;5KJHVDDtE/JC/uWS48569LqEsUiSQ2NjSC1HpsGHqVSslaeApkIYoQ+kOTn1mXLtKWzOZ+X1hzQf&#xA;abv7/LM6PJ00uZUyWAJoNvf+zCh5Z/zkf5SvPMH5eNJY2r3WoaXcxXMMUCtJKyNWKRVVQSRSTmaf&#xA;y5Xlqrb9NZlQ6pt/zjZYa5p35dWVhq9s1rNby3Ihif7YieX1ByHb4nbbK4TEoWG3PilDJUhRpNo/&#xA;/Whp/wDwEYf+6nLijo9ExYuxV8P/AJwflnr8X5yato+iadcXz6pL+kbGKCImsd2ebkU+FY45S6cj&#xA;QDjvTJBtB2Z95e/5xovtQ/LW9sorm1t/M51CCa4uZwWiVIY5E+qpIgYgcpuTMoPIgbdDmPh1HHI9&#xA;w2czV6XwowPWQtJbn/nFLzRp1qbrVtbsYoQwUC1WadyT02kWAfjktRqBjjxVbDRabx8nBdPob8oP&#xA;y90vyP5QisLKWS4kvWF7d3EvEM0skaLRQoHFFCiimvffJQmZRBPUOPqICGSURvwkj5M2JABJ6DJN&#xA;KQaJ9WvfNc7PGJImiJCSKG6cR0Nc1UxWqP8AV/U7mBvRj+t+tl36L0z/AJZIf+Raf0zMcFJZPy48&#xA;gy6r+lpPL2ntqXqCb60baPn6i0o9afa264qnX6L0z/lkh/5Fp/TFXnf5qW9vAnGGJIlMAJVFCivq&#xA;e2abtP6x7ne9lfQfe8rzWO0ei/lF/wBLb/o3/wCZubrsf+L4fpdD23/B8f0PT7GIlvUPQbD55t5n&#xA;o6bHHqjcqbnYq7FXYq7FXYql+uT6LaadPf6vPFaWVqhee8mcRpGo7lzQDJRmRyYTgJc3mR/O78il&#xA;JB81xtSv2Y5/H/jDT8cu8WTV+Ximmj/m5+SkzfXLbzdYgxAgC6nW3O+xokwiY5GWSRFMoYYxNppJ&#xA;+a35Yu5b/F+ib/8AaxtP+qmRAZlZ/wArT/LH/qb9E/7iNp/1UxVAat+dv5T6XEJJ/NWnTcvsrazr&#xA;dGvuLf1SPpwgILE2/Pr8qmcsfMlvvUn9xc9f+AzKE4uGcU+5o/nx+VBBH+JIN/8Aii5/5ox4wjwp&#xA;dzzDXv8AnJO/vLiaKxgs4dNIKxpJJylbfZnZXAH+qB9OU54DJHhug5+jl4M+OuIhE+Tf+ch7fy/5&#xA;Z1q+1O5i1LVxKh0zSEPpqytxV6SIrhVX7RruaZGGOGOPDFdTlnmycUu5hcf/ADkt5oX8yX86GwgZ&#xA;XtBpx0zlRRaKxkVPV48uQlYvyp7dNsNsODZ775W/5yX/ACz1LQLO91nUotG1SZT9a01hNMYmViv9&#xA;4kfEhgAw9jvvjbAwKa/9DC/k3/1M0P8AyJuf+qWG0cBRVp+ef5R3UZkj8z2nAHiebiB60rss/pnv&#xA;1pTFIj3pfpX5sflFau1jD5mtVtrZ/XYzTxcpZZOjFwVjbiBQBTt3ptlWDCMcaBsuTq9TPPLikK2X&#xA;3/5kfk/qN6k1/wCa7aa1joY7IXNsiA9+RElTXKsul8Q3I7dzkafXHDCoRqR5y6qj/wDOQH5LwuYY&#xA;/MVvEkR4LGkUzKOO1FKRshHgVNMyIgAU4E+KUiT1Q93/AM5D/lKFAt/MVvITUNWO5FP+SWTjXVrl&#xA;GXQIfyj+cH5Yfpxrl/MtjFA0TKHmk9Heq7UkCHtmtyQl+ZM69NO1xyH5UQv1X+tnH/K6fyl/6m/S&#xA;f+kuL+uX37/k43D+LDv+V0/lL/1N+k/9JcX9cb9/yXh/Fh3/ACun8pf+pv0n/pLi/rjfv+S8P4sM&#xA;B/M380vy4vwPqXmXTrj9yF/dXEbb+oTTY5q9dhnOQ4QTs7fs/NDHAiRA3eZ/448n/wDV4tP+Rq5h&#xA;fksv80ud+dxfzgzX8t/zc/LDRW1D9L+Yba3Wf0fRCiSXlw58v7pX405Drmz7NxTx8Virr9Lqe1Mk&#xA;MnDwm6v9D3nQtb0XW9Lg1PRbyG+02cVgubdg6NQ0IqO4OxB3B65sC64I/ArsVdirsVdirsVeH/8A&#xA;OX2m+YL38q0bS1kks7S+in1eOKpP1ZY5AHcDqiSFSfDY9slHmgvh/LEOxV2KuxV2KuxV2KuxV2Ku&#xA;xV2KuxV2KuxV2KuxV2KuxV2KuxV2KuxV2KuxV9j/APOFmna5b+S9aurtHj0m8vUbTQ9QrOkZWeRA&#xA;ex+Ba+K+2QmkPonIJdirsVdirsVdiriAwIIqDsQelMVY3feTPy3tLea9vtC0e3t4gZJ7me0tURR3&#xA;Z3ZAB8ycNqwPzdqP/OMUnlrUlvLjyxNb+g5ZNPawe7rxNPq4gJl9Sv2eOEWr4Pyxi7FXYq7FXYq7&#xA;FXYq7FXYq7FXYq7FXYq7FXYq7FXYq7FXYqq231f6zF9Z5fVua+twpz4V+LjXatOmKvvTQ9Q/5xhi&#xA;0i0SxufKcdoIl9FLh7FZuNNvVE59bn/N6nxV65XuyZNeaF+T1lpsOqXmn+XrbTbjiIL6aGyjgkL7&#xA;pwlYBG5dqHfBurLbdLdII1t1RbcKBEsYAQJT4eNNqU6UwKqYq7FXYq7FXYq7FXYqwv8AN/8AL2X8&#xA;wPIt55bhvv0fNM8U0U5UunKFw4WRQQSp9uh37Uwg0r52/wChI/NP/Uy2P/ImbJ8aKd/0JH5p/wCp&#xA;lsf+RM2PGtO/6Ej80/8AUy2P/ImbHjWnf9CR+af+plsf+RM2PGtO/wChI/NP/Uy2P/ImbHjWnf8A&#xA;Qkfmn/qZbH/kTNjxrTv+hI/NP/Uy2P8AyJmx41p3/Qkfmn/qZbH/AJEzY8a07/oSPzT/ANTLY/8A&#xA;ImbHjWnf9CR+af8AqZbH/kTNjxrTv+hI/NP/AFMtj/yJmx41p3/Qkfmn/qZbH/kTNjxrTv8AoSPz&#xA;T/1Mtj/yJmx41p3/AEJH5p/6mWx/5EzY8a07/oSPzT/1Mtj/AMiZseNad/0JH5p/6mWx/wCRM2PG&#xA;tO/6Ej80/wDUy2P/ACJmx41p3/Qkfmn/AKmWx/5EzY8a07/oSPzT/wBTLY/8iZseNad/0JH5p/6m&#xA;Wx/5EzY8a07/AKEj80/9TLY/8iZseNad/wBCR+af+plsf+RM2PGtM38yf84rX2p/lx5W8rW3mIJe&#xA;+XpLuSWaWJjBL9edZHCoG5L6ZQBfGpO1cHEtPbfJnlxfLPlPSfL63L3g0u1itfrMgoz+moHKlTQe&#xA;ArsNsiUpzgV2KuxV2KuxV2KuxV2KuxV2KuxV2KuxV2KuxV2KuxV2KuxV2KuxV2KuxV2KuxV2KuxV&#xA;2KuxV2KuxV2KuxV2KuxV2KuxV2KuxV2KuxV2KuxV2KuxV2KuxV2KuxV2KuxV2KuxV2KuxV2KuxV2&#xA;KuxV2KuxV2KuxV2KuxV2KuxV2KuxV2KuxV2KuxV2KuxV2KuxV2KuxV2KuxV2KuxV2KuxV2KuxV2K&#xA;uxV2KuxV2KuxV2KuxV2KuxV2Kv8A/9k=</xmpGImg:image>
               </rdf:li>
            </rdf:Alt>
         </xmp:Thumbnails>
      </rdf:Description>
      <rdf:Description rdf:about=""
            xmlns:xmpMM="http://ns.adobe.com/xap/1.0/mm/"
            xmlns:stRef="http://ns.adobe.com/xap/1.0/sType/ResourceRef#"
            xmlns:stEvt="http://ns.adobe.com/xap/1.0/sType/ResourceEvent#">
         <xmpMM:InstanceID>xmp.iid:A574B12A0FB6EA11B36B9A5C44321A94</xmpMM:InstanceID>
         <xmpMM:DocumentID>xmp.did:A574B12A0FB6EA11B36B9A5C44321A94</xmpMM:DocumentID>
         <xmpMM:OriginalDocumentID>uuid:5D20892493BFDB11914A8590D31508C8</xmpMM:OriginalDocumentID>
         <xmpMM:RenditionClass>proof:pdf</xmpMM:RenditionClass>
         <xmpMM:DerivedFrom rdf:parseType="Resource">
            <stRef:instanceID>uuid:5da77f8f-adc1-4639-8997-03200c91238e</stRef:instanceID>
            <stRef:documentID>xmp.did:427D79691EC0E9118CF7B24C8FCD678E</stRef:documentID>
            <stRef:originalDocumentID>uuid:5D20892493BFDB11914A8590D31508C8</stRef:originalDocumentID>
            <stRef:renditionClass>proof:pdf</stRef:renditionClass>
         </xmpMM:DerivedFrom>
         <xmpMM:History>
            <rdf:Seq>
               <rdf:li rdf:parseType="Resource">
                  <stEvt:action>saved</stEvt:action>
                  <stEvt:instanceID>xmp.iid:D4434AF877C4E711A90EC9D8BFD2844E</stEvt:instanceID>
                  <stEvt:when>2017-11-08T18:28:40+07:00</stEvt:when>
                  <stEvt:softwareAgent>Adobe Illustrator CS6 (Windows)</stEvt:softwareAgent>
                  <stEvt:changed>/</stEvt:changed>
               </rdf:li>
               <rdf:li rdf:parseType="Resource">
                  <stEvt:action>saved</stEvt:action>
                  <stEvt:instanceID>xmp.iid:557A0155CACBE811AF87D79B9A02ED8B</stEvt:instanceID>
                  <stEvt:when>2018-10-09T20:50:59+07:00</stEvt:when>
                  <stEvt:softwareAgent>Adobe Illustrator CS6 (Windows)</stEvt:softwareAgent>
                  <stEvt:changed>/</stEvt:changed>
               </rdf:li>
               <rdf:li rdf:parseType="Resource">
                  <stEvt:action>converted</stEvt:action>
                  <stEvt:parameters>from application/postscript to application/vnd.adobe.illustrator</stEvt:parameters>
               </rdf:li>
               <rdf:li rdf:parseType="Resource">
                  <stEvt:action>saved</stEvt:action>
                  <stEvt:instanceID>xmp.iid:E94A0A2811CDE811B076F8DE4D8655B6</stEvt:instanceID>
                  <stEvt:when>2018-10-11T12:54:51+07:00</stEvt:when>
                  <stEvt:softwareAgent>Adobe Illustrator CS6 (Windows)</stEvt:softwareAgent>
                  <stEvt:changed>/</stEvt:changed>
               </rdf:li>
               <rdf:li rdf:parseType="Resource">
                  <stEvt:action>saved</stEvt:action>
                  <stEvt:instanceID>xmp.iid:171B6D346D11E911A853A871739DB653</stEvt:instanceID>
                  <stEvt:when>2019-01-06T12:36:41+07:00</stEvt:when>
                  <stEvt:softwareAgent>Adobe Illustrator CS6 (Windows)</stEvt:softwareAgent>
                  <stEvt:changed>/</stEvt:changed>
               </rdf:li>
               <rdf:li rdf:parseType="Resource">
                  <stEvt:action>converted</stEvt:action>
                  <stEvt:parameters>from application/postscript to application/vnd.adobe.illustrator</stEvt:parameters>
               </rdf:li>
               <rdf:li rdf:parseType="Resource">
                  <stEvt:action>saved</stEvt:action>
                  <stEvt:instanceID>xmp.iid:92C7DC776012E91194F6DFE8FA66FEDB</stEvt:instanceID>
                  <stEvt:when>2019-01-07T16:42:37+07:00</stEvt:when>
                  <stEvt:softwareAgent>Adobe Illustrator CS6 (Windows)</stEvt:softwareAgent>
                  <stEvt:changed>/</stEvt:changed>
               </rdf:li>
               <rdf:li rdf:parseType="Resource">
                  <stEvt:action>saved</stEvt:action>
                  <stEvt:instanceID>xmp.iid:FBB92077C518E911A96BB0C0C6CCB05E</stEvt:instanceID>
                  <stEvt:when>2019-01-15T19:59:59+07:00</stEvt:when>
                  <stEvt:softwareAgent>Adobe Illustrator CS6 (Windows)</stEvt:softwareAgent>
                  <stEvt:changed>/</stEvt:changed>
               </rdf:li>
               <rdf:li rdf:parseType="Resource">
                  <stEvt:action>converted</stEvt:action>
                  <stEvt:parameters>from application/postscript to application/vnd.adobe.illustrator</stEvt:parameters>
               </rdf:li>
               <rdf:li rdf:parseType="Resource">
                  <stEvt:action>saved</stEvt:action>
                  <stEvt:instanceID>xmp.iid:00BA2077C518E911A96BB0C0C6CCB05E</stEvt:instanceID>
                  <stEvt:when>2019-01-15T20:05:11+07:00</stEvt:when>
                  <stEvt:softwareAgent>Adobe Illustrator CS6 (Windows)</stEvt:softwareAgent>
                  <stEvt:changed>/</stEvt:changed>
               </rdf:li>
               <rdf:li rdf:parseType="Resource">
                  <stEvt:action>saved</stEvt:action>
                  <stEvt:instanceID>xmp.iid:A574B12A0FB6EA11B36B9A5C44321A94</stEvt:instanceID>
                  <stEvt:when>2020-06-24T17:08:04+05:30</stEvt:when>
                  <stEvt:softwareAgent>Adobe Illustrator CS6 (Windows)</stEvt:softwareAgent>
                  <stEvt:changed>/</stEvt:changed>
               </rdf:li>
            </rdf:Seq>
         </xmpMM:History>
      </rdf:Description>
      <rdf:Description rdf:about=""
            xmlns:illustrator="http://ns.adobe.com/illustrator/1.0/">
         <illustrator:StartupProfile>Print</illustrator:StartupProfile>
      </rdf:Description>
      <rdf:Description rdf:about=""
            xmlns:xmpTPg="http://ns.adobe.com/xap/1.0/t/pg/"
            xmlns:stDim="http://ns.adobe.com/xap/1.0/sType/Dimensions#"
            xmlns:xmpG="http://ns.adobe.com/xap/1.0/g/">
         <xmpTPg:HasVisibleOverprint>False</xmpTPg:HasVisibleOverprint>
         <xmpTPg:HasVisibleTransparency>False</xmpTPg:HasVisibleTransparency>
         <xmpTPg:NPages>1</xmpTPg:NPages>
         <xmpTPg:MaxPageSize rdf:parseType="Resource">
            <stDim:w>500.000000</stDim:w>
            <stDim:h>500.000000</stDim:h>
            <stDim:unit>Pixels</stDim:unit>
         </xmpTPg:MaxPageSize>
         <xmpTPg:PlateNames>
            <rdf:Seq>
               <rdf:li>Cyan</rdf:li>
               <rdf:li>Magenta</rdf:li>
               <rdf:li>Yellow</rdf:li>
               <rdf:li>Black</rdf:li>
            </rdf:Seq>
         </xmpTPg:PlateNames>
         <xmpTPg:SwatchGroups>
            <rdf:Seq>
               <rdf:li rdf:parseType="Resource">
                  <xmpG:groupName>Default Swatch Group</xmpG:groupName>
                  <xmpG:groupType>0</xmpG:groupType>
               </rdf:li>
            </rdf:Seq>
         </xmpTPg:SwatchGroups>
      </rdf:Description>
      <rdf:Description rdf:about=""
            xmlns:pdf="http://ns.adobe.com/pdf/1.3/">
         <pdf:Producer>Adobe PDF library 10.01</pdf:Producer>
      </rdf:Description>
   </rdf:RDF>
</x:xmpmeta>
                                                                                                    
                                                                                                    
                                                                                                    
                                                                                                    
                                                                                                    
                                                                                                    
                                                                                                    
                                                                                                    
                                                                                                    
                                                                                                    
                                                                                                    
                                                                                                    
                                                                                                    
                                                                                                    
                                                                                                    
                                                                                                    
                                                                                                    
                                                                                                    
                                                                                                    
                                                                                                    
                           
<?xpacket end="w"?>
	</metadata>
<g id="BACKGROUND">
	<rect fill-rule="evenodd" clip-rule="evenodd" fill="#FFFFFF" width="500" height="500"/>
</g>
<g id="OBJECTS">
</g>
<g id="Layer_4">
	<g>
		<path fill-rule="evenodd" clip-rule="evenodd" fill="#E1F2FC" d="M112.939,403.882c-38.417,0-81.188-31.433-81.188-69.85v-0.001
			c0-38.417,31.432-69.849,69.849-69.85l0,0c16.243,0,29.534-13.289,29.534-29.533v-0.001c0-16.243-13.291-29.534-29.534-29.534
			h-3.515c-16.889,0-30.706-13.816-30.706-30.705v-0.001c0-16.888,13.817-30.706,30.706-30.706h10.782
			c6.575,0,11.954-5.379,11.954-11.954l0,0c0-6.575-5.379-11.954-11.954-11.954h-7.923c-4.538,0-8.25-3.713-8.25-8.25v-0.001
			c0-4.537,3.713-8.25,8.25-8.25h53.262c7.13,0,12.964-5.834,12.964-12.964l0,0c0-7.129-5.834-12.963-12.964-12.963h-15.925
			c-4.537,0-8.25-3.713-8.25-8.25v-0.001c0-4.537,3.713-8.25,8.25-8.25h233.246c5.92,0,10.766,4.846,10.766,10.766l0,0
			c0,5.921-4.846,10.766-10.766,10.766h-16.333c-9.304,0-16.916,7.613-16.916,16.916v0.001c0,9.303,7.612,16.916,16.916,16.916
			h63.183c5.921,0,10.766,4.845,10.766,10.766l0,0c0,5.921-4.845,10.765-10.766,10.765h-10.338c-8.58,0-15.6,7.02-15.6,15.599l0,0
			c0,8.58,7.02,15.6,15.6,15.6h14.07c22.036,0,40.066,18.029,40.066,40.066l0,0c0,22.037-18.03,40.067-40.066,40.067h-4.587
			c-21.197,0-38.538,17.342-38.538,38.539l0,0c0,21.195,17.341,38.537,38.538,38.537h9.931c21.373,0,38.857,17.486,38.857,38.856
			l0,0c0,21.371-17.484,38.857-38.857,38.857C316.886,403.882,223.507,403.882,112.939,403.882L112.939,403.882z M399.073,82.397
			c5.947,0,10.767-4.819,10.767-10.766c0-5.946-4.819-10.766-10.767-10.766c-5.945,0-10.766,4.82-10.766,10.766
			C388.308,77.578,393.128,82.397,399.073,82.397L399.073,82.397z M77.792,119.794c4.557,0,8.25-3.693,8.25-8.25
			s-3.694-8.251-8.25-8.251c-4.556,0-8.25,3.694-8.25,8.251S73.236,119.794,77.792,119.794z"/>
		<g>
			<rect x="252.19" y="93.358" fill-rule="evenodd" clip-rule="evenodd" fill="#AAD3F0" width="75.798" height="61.802"/>
			<rect x="250.411" y="92.171" fill-rule="evenodd" clip-rule="evenodd" fill="#C4E1F5" width="75.799" height="61.803"/>
			<rect x="256.818" y="98.579" fill-rule="evenodd" clip-rule="evenodd" fill="#FFFFFF" width="62.983" height="48.987"/>
		</g>
		<path fill-rule="evenodd" clip-rule="evenodd" fill="#C1E1F4" d="M112.939,403.882c-38.417,0-81.188-31.433-81.188-69.85v-0.001
			c0-38.417,31.432-69.849,69.849-69.85l0,0c16.243,0,29.534-13.289,29.534-29.533v-0.001c0-16.243-13.291-29.534-29.534-29.534
			h-3.515c-16.889,0-30.706-13.816-30.706-30.705v-0.001c0-16.888,13.817-30.706,30.706-30.706h10.782
			c6.575,0,11.954-5.379,11.954-11.954l0,0c0-6.575-5.379-11.954-11.954-11.954h-7.923c-4.538,0-8.25-3.713-8.25-8.25v-0.001
			c0-4.537,3.713-8.25,8.25-8.25h53.262c7.13,0,12.964-5.834,12.964-12.964l0,0c0-7.129-5.834-12.963-12.964-12.963h-15.925
			c-4.537,0-8.25-3.713-8.25-8.25v-0.001c0-4.537,3.713-8.25,8.25-8.25h74.692v343.017H112.939L112.939,403.882z M77.792,119.794
			c4.557,0,8.25-3.693,8.25-8.25s-3.694-8.251-8.25-8.251c-4.556,0-8.25,3.694-8.25,8.251S73.236,119.794,77.792,119.794z"/>
		<path fill-rule="evenodd" clip-rule="evenodd" fill="#9CC6E0" d="M81.163,397.224c-0.328-0.137-0.656-0.274-0.983-0.414h0.795
			h0.01h20.764v-12.05H80.985H80.98h-0.005H60.211v0.394l-0.367-0.28v-0.113h-0.147c-0.157-0.121-0.315-0.243-0.471-0.366h0.796
			h0.01h20.764v-12.049H60.033h-0.005h-0.005H46.749l-0.306-0.368h13.402v-12.049H39.08h-0.005h-0.004h-0.691
			c-0.064-0.122-0.132-0.244-0.195-0.366h0.708v-12.05h-5.37l-0.095-0.366h5.644h0.009h20.765v-12.049H39.08h-0.005h-0.004h-7.302
			l-0.006-0.367h7.129v-12.05h-6.208l0.061-0.367h6.325h0.009h20.765v-12.049H39.08h-0.005h-0.004h-3.129l0.134-0.366h2.816v-6.532
			c0.122-0.246,0.243-0.491,0.367-0.735v7.268h20.764h0.01h20.764v-12.05H60.033h-0.005h-0.005H41.922
			c0.075-0.122,0.154-0.243,0.229-0.366h17.693v-12.049h-8.29l0.358-0.367h8.11h0.01h20.764v-12.05H67.714
			c0.218-0.122,0.435-0.247,0.654-0.366h12.606h0.01h20.764v-8.469l0.366-0.005v8.474h20.765h0.009h20.764V260.6h-20.764h-0.005
			h-0.004h-7.226c0.219-0.118,0.437-0.241,0.652-0.366h6.395v-4.976c0.123-0.126,0.246-0.253,0.366-0.381v5.356h20.764h0.01h20.764
			v-12.05h-20.764h-0.005h-0.005h-16.005c0.063-0.121,0.125-0.244,0.187-0.365h15.64v-12.05H131.11
			c0.005-0.123,0.011-0.245,0.014-0.368h12.708h0.01h20.764v-12.047h-20.764h-0.005h-0.005h-14.958
			c-0.051-0.123-0.104-0.246-0.157-0.368h14.936v-12.05h-20.764h-0.005h-0.004h-3.727c-0.167-0.123-0.333-0.246-0.503-0.366h4.051
			v-12.049h-20.764h-0.005h-0.005H81.163v1.473c-0.123-0.082-0.245-0.164-0.367-0.247v-1.226h-1.668
			c-0.152-0.121-0.304-0.244-0.455-0.367h2.301h0.01h20.764v-12.05H80.985H80.98h-0.005H69.709c-0.051-0.122-0.101-0.244-0.15-0.366
			h11.238v-12.049H67.389c0.003-0.123,0.008-0.245,0.012-0.367h13.574h0.01h20.764v-12.049H80.985H80.98h-0.005H70.351
			c0.059-0.123,0.119-0.245,0.179-0.366h10.267V149.07c0.289-0.198,0.581-0.392,0.877-0.58h20.076v-4.788h0.366v4.788h20.765h0.009
			h20.764v-12.05h-20.764h-0.005h-0.004h-3.024c0.053-0.121,0.103-0.243,0.151-0.367h2.695v-12.049h-4.73
			c-0.105-0.125-0.214-0.247-0.324-0.366h5.233h0.009h20.764v-12.049h-20.764h-0.005h-0.004h-20.765v8.186h-0.366v-8.186h-9.054
			l0-0.064v-0.001c0-0.101,0.002-0.202,0.006-0.302h9.227h0.01h20.764v-7.948h0.366v7.948h20.764h0.01h20.764v-12.05h-0.961
			c0.113-0.12,0.225-0.241,0.332-0.366h0.807h0.01h20.765V86.776h-18.886c-0.036-0.123-0.074-0.245-0.113-0.367h19.178h0.01h20.764
			V74.36h-20.764h-0.005h-0.005h-20.765v8.771c-0.118-0.175-0.24-0.348-0.366-0.518V74.36h-20.764h-0.005h-0.005h-11.907
			c-0.099-0.12-0.194-0.243-0.286-0.367h12.015V61.944h-9.438c0.234-0.134,0.475-0.256,0.722-0.366h8.894h0.01h20.764v-0.713h0.366
			v0.713h20.765h0.01h20.764v-0.713h0.367v0.713h6.096v0.366h-6.275h-0.004h-0.005h-20.765v12.049h20.765h0.009h6.275v0.367h-6.096
			v12.049h6.096v0.367h-6.275h-0.004h-0.005h-20.765v12.049h20.765h0.009h6.275v0.366h-6.096v12.05h6.096v0.367h-6.275h-0.004
			h-0.005h-20.765v12.049h20.765h0.009h6.275v0.366h-6.096v12.049h6.096v0.367h-6.275h-0.004h-0.005h-20.765v12.05h20.765h0.009
			h6.275v0.367h-6.096v12.049h6.096v0.366h-6.275h-0.004h-0.005h-20.765v12.049h20.765h0.009h6.275v0.367h-6.096v12.049h6.096v0.366
			h-6.275h-0.004h-0.005h-20.765v12.05h20.765h0.009h6.275v0.367h-6.096v12.049h6.096v0.366h-6.275h-0.004h-0.005h-20.765v12.05
			h20.765h0.009h6.275v0.368h-6.096V235.4h6.096v0.368h-6.275h-0.004h-0.005h-20.765v12.05h20.765h0.009h6.275v0.365h-6.096v12.05
			h6.096v0.366h-6.275h-0.004h-0.005h-20.765v12.05h20.765h0.009h6.275v0.366h-6.096v12.05h6.096v0.367h-6.275h-0.004h-0.005
			h-20.765v12.049h20.765h0.009h6.275v0.366h-6.096v12.05h6.096v0.366h-6.275h-0.004h-0.005h-20.765v12.049h20.765h0.009h6.275
			v0.367h-6.096v12.05h6.096v0.367h-6.275h-0.004h-0.005h-20.765v12.049h20.765h0.009h6.275v0.366h-6.096v12.05h6.096v0.366h-6.275
			h-0.004h-0.005h-20.765v12.049h20.765h0.009h6.275v0.368h-6.096v12.049h6.096v0.366h-6.275h-0.004h-0.005h-20.765v12.05h20.765
			h0.009h6.275v0.366h-6.096v4.654h-0.367v-4.654h-20.764h-0.005h-0.005h-20.765v4.654h-0.366v-4.654h-20.764h-0.005h-0.005h-20.764
			v4.654h-0.366v-4.654h-20.764h-0.005h-0.005H81.163V397.224L81.163,397.224z M69.548,111.242c-0.004,0.1-0.006,0.201-0.006,0.303
			l0.001,0.064h11.432h0.005h0.005h5.057l0.001-0.064c0-0.102-0.002-0.203-0.006-0.303h-4.874v-7.229
			c-0.121-0.055-0.243-0.105-0.367-0.154v7.384H69.548L69.548,111.242z M185.558,384.76h-20.765h-0.004h-0.006H144.02v12.05h20.764
			h0.01h20.765V384.76L185.558,384.76z M143.653,384.76h-20.764h-0.005h-0.004h-20.765v12.05h20.765h0.009h20.764V384.76
			L143.653,384.76z M206.51,372.345h-20.764h-0.005h-0.005h-20.765v12.049h20.765h0.01h20.764V372.345L206.51,372.345z
			 M164.605,372.345h-20.764h-0.005h-0.005h-20.764v12.049h20.764h0.01h20.764V372.345L164.605,372.345z M122.701,372.345h-20.764
			h-0.005h-0.005H81.163v12.049h20.764h0.01h20.764V372.345L122.701,372.345z M185.558,359.928h-20.765h-0.004h-0.006H144.02v12.049
			h20.764h0.01h20.765V359.928L185.558,359.928z M143.653,359.928h-20.764h-0.005h-0.004h-20.765v12.049h20.765h0.009h20.764
			V359.928L143.653,359.928z M101.749,359.928H80.985H80.98h-0.005H60.211v12.049h20.764h0.01h20.764V359.928L101.749,359.928z
			 M206.51,347.512h-20.764h-0.005h-0.005h-20.765v12.05h20.765h0.01h20.764V347.512L206.51,347.512z M164.605,347.512h-20.764
			h-0.005h-0.005h-20.764v12.05h20.764h0.01h20.764V347.512L164.605,347.512z M122.701,347.512h-20.764h-0.005h-0.005H81.163v12.05
			h20.764h0.01h20.764V347.512L122.701,347.512z M80.796,347.512H60.033h-0.005h-0.005H39.259v12.05h20.764h0.01h20.764V347.512
			L80.796,347.512z M185.558,335.097h-20.765h-0.004h-0.006H144.02v12.049h20.764h0.01h20.765V335.097L185.558,335.097z
			 M143.653,335.097h-20.764h-0.005h-0.004h-20.765v12.049h20.765h0.009h20.764V335.097L143.653,335.097z M101.749,335.097H80.985
			H80.98h-0.005H60.211v12.049h20.764h0.01h20.764V335.097L101.749,335.097z M206.51,322.68h-20.764h-0.005h-0.005h-20.765v12.05
			h20.765h0.01h20.764V322.68L206.51,322.68z M164.605,322.68h-20.764h-0.005h-0.005h-20.764v12.05h20.764h0.01h20.764V322.68
			L164.605,322.68z M122.701,322.68h-20.764h-0.005h-0.005H81.163v12.05h20.764h0.01h20.764V322.68L122.701,322.68z M80.796,322.68
			H60.033h-0.005h-0.005H39.259v12.05h20.764h0.01h20.764V322.68L80.796,322.68z M185.558,310.264h-20.765h-0.004h-0.006H144.02
			v12.049h20.764h0.01h20.765V310.264L185.558,310.264z M143.653,310.264h-20.764h-0.005h-0.004h-20.765v12.049h20.765h0.009h20.764
			V310.264L143.653,310.264z M101.749,310.264H80.985H80.98h-0.005H60.211v12.049h20.764h0.01h20.764V310.264L101.749,310.264z
			 M206.51,297.848h-20.764h-0.005h-0.005h-20.765v12.05h20.765h0.01h20.764V297.848L206.51,297.848z M164.605,297.848h-20.764
			h-0.005h-0.005h-20.764v12.05h20.764h0.01h20.764V297.848L164.605,297.848z M122.701,297.848h-20.764h-0.005h-0.005H81.163v12.05
			h20.764h0.01h20.764V297.848L122.701,297.848z M185.558,285.433h-20.765h-0.004h-0.006H144.02v12.049h20.764h0.01h20.765V285.433
			L185.558,285.433z M143.653,285.433h-20.764h-0.005h-0.004h-20.765v12.049h20.765h0.009h20.764V285.433L143.653,285.433z
			 M101.749,285.433H80.985H80.98h-0.005H60.211v12.049h20.764h0.01h20.764V285.433L101.749,285.433z M206.51,273.016h-20.764
			h-0.005h-0.005h-20.765v12.05h20.765h0.01h20.764V273.016L206.51,273.016z M164.605,273.016h-20.764h-0.005h-0.005h-20.764v12.05
			h20.764h0.01h20.764V273.016L164.605,273.016z M122.701,273.016h-20.764h-0.005h-0.005H81.163v12.05h20.764h0.01h20.764V273.016
			L122.701,273.016z M185.558,260.6h-20.765h-0.004h-0.006H144.02v12.05h20.764h0.01h20.765V260.6L185.558,260.6z M206.51,248.184
			h-20.764h-0.005h-0.005h-20.765v12.05h20.765h0.01h20.764V248.184L206.51,248.184z M185.558,235.769h-20.765h-0.004h-0.006H144.02
			v12.05h20.764h0.01h20.765V235.769L185.558,235.769z M206.51,223.354h-20.764h-0.005h-0.005h-20.765V235.4h20.765h0.01h20.764
			V223.354L206.51,223.354z M185.558,210.936h-20.765h-0.004h-0.006H144.02v12.05h20.764h0.01h20.765V210.936L185.558,210.936z
			 M206.51,198.521h-20.764h-0.005h-0.005h-20.765v12.049h20.765h0.01h20.764V198.521L206.51,198.521z M164.605,198.521h-20.764
			h-0.005h-0.005h-20.764v12.049h20.764h0.01h20.764V198.521L164.605,198.521z M185.558,186.104h-20.765h-0.004h-0.006H144.02v12.05
			h20.764h0.01h20.765V186.104L185.558,186.104z M143.653,186.104h-20.764h-0.005h-0.004h-20.765v12.05h20.765h0.009h20.764V186.104
			L143.653,186.104z M206.51,173.688h-20.764h-0.005h-0.005h-20.765v12.049h20.765h0.01h20.764V173.688L206.51,173.688z
			 M164.605,173.688h-20.764h-0.005h-0.005h-20.764v12.049h20.764h0.01h20.764V173.688L164.605,173.688z M122.701,173.688h-20.764
			h-0.005h-0.005H81.163v12.049h20.764h0.01h20.764V173.688L122.701,173.688z M185.558,161.272h-20.765h-0.004h-0.006H144.02v12.049
			h20.764h0.01h20.765V161.272L185.558,161.272z M143.653,161.272h-20.764h-0.005h-0.004h-20.765v12.049h20.765h0.009h20.764
			V161.272L143.653,161.272z M206.51,148.856h-20.764h-0.005h-0.005h-20.765v12.049h20.765h0.01h20.764V148.856L206.51,148.856z
			 M164.605,148.856h-20.764h-0.005h-0.005h-20.764v12.049h20.764h0.01h20.764V148.856L164.605,148.856z M122.701,148.856h-20.764
			h-0.005h-0.005H81.163v12.049h20.764h0.01h20.764V148.856L122.701,148.856z M185.558,136.44h-20.765h-0.004h-0.006H144.02v12.05
			h20.764h0.01h20.765V136.44L185.558,136.44z M206.51,124.024h-20.764h-0.005h-0.005h-20.765v12.049h20.765h0.01h20.764V124.024
			L206.51,124.024z M164.605,124.024h-20.764h-0.005h-0.005h-20.764v12.049h20.764h0.01h20.764V124.024L164.605,124.024z
			 M185.558,111.608h-20.765h-0.004h-0.006H144.02v12.049h20.764h0.01h20.765V111.608L185.558,111.608z M206.51,99.191h-20.764
			h-0.005h-0.005h-20.765v12.05h20.765h0.01h20.764V99.191L206.51,99.191z M185.558,61.944h-20.765h-0.004h-0.006H144.02v12.049
			h20.764h0.01h20.765V61.944z"/>
		<g>
			<g>
				<path fill-rule="evenodd" clip-rule="evenodd" fill="#AED0E7" d="M364.965,217.418L364.965,217.418
					c0.437,0,0.794,0.357,0.794,0.795v1.492c0,0.437-0.357,0.794-0.794,0.794l0,0c-0.437,0-0.794-0.357-0.794-0.794v-1.492
					C364.171,217.775,364.528,217.418,364.965,217.418z"/>
				<path fill-rule="evenodd" clip-rule="evenodd" fill="#AED0E7" d="M364.965,221.008L364.965,221.008
					c0.437,0,0.794,0.357,0.794,0.793v1.493c0,0.438-0.357,0.794-0.794,0.794l0,0c-0.437,0-0.794-0.356-0.794-0.794v-1.493
					C364.171,221.365,364.528,221.008,364.965,221.008z"/>
				<path fill-rule="evenodd" clip-rule="evenodd" fill="#AED0E7" d="M364.965,224.548L364.965,224.548
					c0.437,0,0.794,0.357,0.794,0.794v1.492c0,0.438-0.357,0.794-0.794,0.794l0,0c-0.437,0-0.794-0.356-0.794-0.794v-1.492
					C364.171,224.905,364.528,224.548,364.965,224.548z"/>
				<path fill-rule="evenodd" clip-rule="evenodd" fill="#AED0E7" d="M364.965,228.088L364.965,228.088
					c0.437,0,0.794,0.357,0.794,0.795v1.492c0,0.436-0.357,0.793-0.794,0.793l0,0c-0.437,0-0.794-0.357-0.794-0.793v-1.492
					C364.171,228.445,364.528,228.088,364.965,228.088z"/>
				<path fill-rule="evenodd" clip-rule="evenodd" fill="#AED0E7" d="M364.965,231.629L364.965,231.629
					c0.437,0,0.794,0.357,0.794,0.793v1.492c0,0.438-0.357,0.795-0.794,0.795l0,0c-0.437,0-0.794-0.357-0.794-0.795v-1.492
					C364.171,231.986,364.528,231.629,364.965,231.629z"/>
				<path fill-rule="evenodd" clip-rule="evenodd" fill="#AED0E7" d="M364.965,235.168L364.965,235.168
					c0.437,0,0.794,0.357,0.794,0.795v1.492c0,0.438-0.357,0.794-0.794,0.794l0,0c-0.437,0-0.794-0.356-0.794-0.794v-1.492
					C364.171,235.525,364.528,235.168,364.965,235.168z"/>
				<path fill-rule="evenodd" clip-rule="evenodd" fill="#AED0E7" d="M364.965,238.709L364.965,238.709
					c0.437,0,0.794,0.357,0.794,0.793v1.493c0,0.438-0.357,0.795-0.794,0.795l0,0c-0.437,0-0.794-0.357-0.794-0.795v-1.493
					C364.171,239.066,364.528,238.709,364.965,238.709z"/>
				<path fill-rule="evenodd" clip-rule="evenodd" fill="#AED0E7" d="M364.965,242.25L364.965,242.25
					c0.437,0,0.794,0.356,0.794,0.794v1.491c0,0.438-0.357,0.795-0.794,0.795l0,0c-0.437,0-0.794-0.357-0.794-0.795v-1.491
					C364.171,242.606,364.528,242.25,364.965,242.25z"/>
			</g>
			<path fill-rule="evenodd" clip-rule="evenodd" fill="#AED0E7" d="M364.435,244.369c-0.295,0-0.613,0.243-0.706,0.539
				l-1.941,6.132c-0.094,0.294,0.071,0.536,0.366,0.536h5.623c0.295,0,0.46-0.242,0.366-0.536l-1.941-6.132
				c-0.094-0.296-0.411-0.539-0.706-0.539H364.435z"/>
			<path fill-rule="evenodd" clip-rule="evenodd" fill="#AED0E7" d="M348.197,225.554h1.43c0.341,0,0.62,0.409,0.62,0.907v165.122
				c0,0.499-0.279,0.908-0.62,0.908h-1.43c-0.341,0-0.62-0.409-0.62-0.908V226.461C347.577,225.963,347.856,225.554,348.197,225.554
				z"/>
			<path fill-rule="evenodd" clip-rule="evenodd" fill="#AED0E7" d="M346.022,209.572h5.777c1.377,0,2.503,1.127,2.503,2.504v16.174
				c0,1.376-1.126,2.503-2.503,2.503h-5.777c-1.376,0-2.502-1.127-2.502-2.503v-16.174
				C343.521,210.699,344.646,209.572,346.022,209.572z"/>
			<path fill-rule="evenodd" clip-rule="evenodd" fill="#AED0E7" d="M346.022,384.403h5.777c1.377,0,2.503,1.127,2.503,2.504v11.168
				c0,1.377-1.126,2.503-2.503,2.503h-5.777c-1.376,0-2.502-1.126-2.502-2.503v-11.168
				C343.521,385.53,344.646,384.403,346.022,384.403z"/>
			<path fill-rule="evenodd" clip-rule="evenodd" fill="#AED0E7" d="M337.924,401.83h21.975c1.185,0,2.154-0.97,2.154-2.154l0,0
				c0-1.186-0.97-2.154-2.154-2.154h-21.975c-1.186,0-2.154,0.969-2.154,2.154l0,0C335.77,400.86,336.738,401.83,337.924,401.83z"/>
			<path fill-rule="evenodd" clip-rule="evenodd" fill="#AED0E7" d="M348.911,172.315h-12.351c-1.895,0-3.935,1.549-4.535,3.444
				l-12.446,39.323c-0.6,1.895,0.46,3.444,2.354,3.444h26.978h26.978c1.895,0,2.955-1.55,2.354-3.444l-12.447-39.323
				c-0.6-1.895-2.641-3.444-4.535-3.444H348.911z"/>
			<path fill-rule="evenodd" clip-rule="evenodd" fill="#AED0E7" d="M325.026,197.875l-1.421,4.487h50.611l-1.42-4.487H325.026
				L325.026,197.875z M322.746,205.077l-2.84,8.972h58.01l-2.84-8.972H322.746z"/>
			<g>
				<circle fill-rule="evenodd" clip-rule="evenodd" fill="#AED0E7" cx="364.965" cy="220.751" r="0.445"/>
				<circle fill-rule="evenodd" clip-rule="evenodd" fill="#AED0E7" cx="364.965" cy="224.291" r="0.445"/>
				<circle fill-rule="evenodd" clip-rule="evenodd" fill="#AED0E7" cx="364.965" cy="227.832" r="0.445"/>
				<circle fill-rule="evenodd" clip-rule="evenodd" fill="#AED0E7" cx="364.965" cy="231.372" r="0.445"/>
				<circle fill-rule="evenodd" clip-rule="evenodd" fill="#AED0E7" cx="364.965" cy="234.913" r="0.446"/>
				<circle fill-rule="evenodd" clip-rule="evenodd" fill="#AED0E7" cx="364.965" cy="238.453" r="0.445"/>
				<circle fill-rule="evenodd" clip-rule="evenodd" fill="#AED0E7" cx="364.965" cy="241.994" r="0.445"/>
			</g>
		</g>
		<path fill-rule="evenodd" clip-rule="evenodd" fill="#01020E" d="M450.162,423.195h-22.968c-3.523,0-6.408,2.883-6.408,6.406l0,0
			c0,3.523,2.885,6.407,6.408,6.407h9.615c2.795,0,5.086,2.288,5.086,5.086l0,0c0,2.796-2.29,5.084-5.086,5.084H94.036
			c-2.796,0-5.085-2.288-5.085-5.084l0,0c0-2.798,2.289-5.086,5.085-5.086h9.175c3.523,0,6.407-2.884,6.407-6.407l0,0
			c0-3.523-2.883-6.406-6.407-6.406H82.207c-5.593,0-10.17-4.576-10.17-10.171l0,0c0-5.593,4.579-10.169,10.17-10.169h367.956
			c5.59,0,10.17,4.576,10.17,10.169l0,0C460.332,418.619,455.754,423.195,450.162,423.195L450.162,423.195z M450.551,446.179
			c2.809,0,5.086-2.276,5.086-5.084c0-2.809-2.277-5.087-5.086-5.087c-2.81,0-5.086,2.278-5.086,5.087
			C445.465,443.902,447.741,446.179,450.551,446.179z"/>
		<g>
			<path fill-rule="evenodd" clip-rule="evenodd" fill="#C37642" d="M365.702,283.35h70.342c4.981,0,9.058,4.078,9.058,9.059
				v110.447h-88.458V292.408C356.644,287.427,360.72,283.35,365.702,283.35z"/>
			<path fill-rule="evenodd" clip-rule="evenodd" fill="#F0A372" d="M355.983,283.35h54.77c4.174,0,7.589,3.416,7.589,7.59v111.916
				h-69.948V290.939C348.394,286.765,351.81,283.35,355.983,283.35z"/>
			<path fill-rule="evenodd" clip-rule="evenodd" fill="#FFFFFF" d="M355.983,289.275h54.77c0.914,0,1.663,0.749,1.663,1.664
				v111.916H354.32V290.939C354.32,290.024,355.069,289.275,355.983,289.275z"/>
			<path fill-rule="evenodd" clip-rule="evenodd" fill="#1C1D1D" d="M387.045,316.701h-7.353c-1.066,0-1.938,0.872-1.938,1.938
				v0.001c0,1.065,0.872,1.938,1.938,1.938h7.353c1.065,0,1.937-0.873,1.937-1.938v-0.001
				C388.981,317.573,388.11,316.701,387.045,316.701z"/>
			<rect x="354.32" y="373.491" fill-rule="evenodd" clip-rule="evenodd" fill="#1C1D1D" width="58.096" height="1.938"/>
			<rect x="354.32" y="345.097" fill-rule="evenodd" clip-rule="evenodd" fill="#1C1D1D" width="58.096" height="1.938"/>
			<rect x="354.32" y="316.701" fill-rule="evenodd" clip-rule="evenodd" fill="#1C1D1D" width="58.096" height="1.938"/>
			<path fill-rule="evenodd" clip-rule="evenodd" fill="#1C1D1D" d="M387.045,345.097h-7.353c-1.066,0-1.938,0.872-1.938,1.938l0,0
				c0,1.065,0.872,1.938,1.938,1.938h7.353c1.065,0,1.937-0.871,1.937-1.938l0,0C388.981,345.969,388.11,345.097,387.045,345.097z"
				/>
			<path fill-rule="evenodd" clip-rule="evenodd" fill="#1C1D1D" d="M387.045,373.491h-7.353c-1.066,0-1.938,0.871-1.938,1.938
				v0.001c0,1.065,0.872,1.938,1.938,1.938h7.353c1.065,0,1.937-0.872,1.937-1.938v-0.001
				C388.981,374.362,388.11,373.491,387.045,373.491z"/>
			<path fill-rule="evenodd" clip-rule="evenodd" fill="#1C1D1D" d="M387.045,289.275h-7.353c-1.066,0-1.938,0.873-1.938,1.938l0,0
				c0,1.066,0.872,1.938,1.938,1.938h7.353c1.065,0,1.937-0.872,1.937-1.938l0,0C388.981,290.147,388.11,289.275,387.045,289.275z"
				/>
			<path fill-rule="evenodd" clip-rule="evenodd" fill="#1C1D1D" d="M410.753,289.275h-54.77c-0.915,0-1.663,0.749-1.663,1.664
				v0.273h58.096v-0.273C412.416,290.024,411.668,289.275,410.753,289.275z"/>
		</g>
		<g>
			<g>
				<g>
					<path fill-rule="evenodd" clip-rule="evenodd" fill="#0C0E0E" d="M427.064,228.793c8.366-3.615,9.693,5.734,5.976,13.109
						c-2.514,4.989-11.578,17.768-17.681,28.636h-6.966C410.775,254.096,418.418,232.529,427.064,228.793z"/>
					<path fill-rule="evenodd" clip-rule="evenodd" fill="#393839" d="M410.881,270.538c5.94-19.921,19.619-38.694,19.674-38.771
						c0.118-0.164,0.349-0.201,0.513-0.084c0.166,0.116,0.204,0.344,0.087,0.508c-0.055,0.074-13.591,18.652-19.516,38.347H410.881z
						"/>
				</g>
				<g>
					<path fill-rule="evenodd" clip-rule="evenodd" fill="#A9C2C6" d="M409.386,199.251c-8.436-8.271-14.198,2.215-13.022,12.749
						c1.114,9.987,10.853,44.261,9.688,58.674l3.323,0.004C416.935,252.203,420.186,209.838,409.386,199.251z"/>
					<path fill-rule="evenodd" clip-rule="evenodd" fill="#7A9296" d="M408.153,270.677c7.014-29.126-4.249-69.409-4.286-69.546
						c-0.068-0.25-0.328-0.404-0.578-0.343c-0.25,0.06-0.398,0.312-0.329,0.563c0.038,0.137,11.314,40.466,4.231,69.326
						L408.153,270.677z"/>
				</g>
				<g>
					<path fill-rule="evenodd" clip-rule="evenodd" fill="#C7DCDF" d="M388.62,217.539c-8.843-4.223-10.54,5.715-6.781,13.758
						c3.113,6.664,16.393,26.24,21.671,38.929l4.384-0.151C407.405,252.305,399.06,222.523,388.62,217.539z"/>
					<path fill-rule="evenodd" clip-rule="evenodd" fill="#7A9296" d="M406.292,270.13c-4.019-23.919-21.431-49.468-21.494-49.56
						c-0.121-0.18-0.366-0.23-0.546-0.111c-0.18,0.116-0.228,0.357-0.106,0.537c0.063,0.092,17.365,25.476,21.367,49.16
						L406.292,270.13z"/>
				</g>
			</g>
			<g>
				<path fill-rule="evenodd" clip-rule="evenodd" fill="#C37642" d="M401.05,268.294h16.814c0.504,0,0.915,0.411,0.915,0.913v4.152
					c0,0.503-0.411,0.914-0.915,0.914H401.05c-0.504,0-0.915-0.411-0.915-0.914v-4.152
					C400.135,268.705,400.546,268.294,401.05,268.294z"/>
				<polygon fill-rule="evenodd" clip-rule="evenodd" fill="#C37642" points="403.933,271.67 414.98,271.67 417.864,274.273 
					415.509,283.35 409.457,283.35 403.404,283.35 401.05,274.273 				"/>
				<polygon fill-rule="evenodd" clip-rule="evenodd" fill="#F0A372" points="417.864,274.273 417.381,276.14 401.533,276.14 
					401.05,274.273 				"/>
			</g>
		</g>
		<g>
			<path fill-rule="evenodd" clip-rule="evenodd" fill="#F0F5FA" d="M145.053,403.882h-1.442h-5.057h-5.077h-5.1h-5.122h-5.146
				h-5.171c-3.881,0-7.806-0.326-11.727-0.943v-3.041h6.852V263.463c6.91-1.559,12.922-5.557,17.075-11.033h19.915
				c6.727,0,12.23,5.504,12.23,12.23v126.991C157.283,398.378,151.779,403.882,145.053,403.882z"/>
			<path fill-rule="evenodd" clip-rule="evenodd" fill="#FFFFFF" d="M113.109,261.833c0.217,0.909,0.333,1.855,0.333,2.827v126.991
				c0,5.549-3.747,10.266-8.834,11.747c-8.44-0.955-16.923-3.313-24.969-6.826h21.574c2.692,0,4.921-2.229,4.921-4.921V264.66
				c0-0.278-0.024-0.551-0.069-0.817C108.523,263.466,110.885,262.783,113.109,261.833z"/>
			<path fill-rule="evenodd" clip-rule="evenodd" fill="#FFFFFF" d="M46.977,290.63h62.755v83.742H48.499
				c-10.231-11.413-16.748-25.345-16.748-40.34v-0.001C31.751,317.666,37.458,302.57,46.977,290.63z"/>
		</g>
		<g>
			<polygon fill-rule="evenodd" clip-rule="evenodd" fill="#0F1630" points="261.55,79.301 225.028,79.301 243.289,68.542 			"/>
			<path fill-rule="evenodd" clip-rule="evenodd" fill="#0F1630" d="M225.174,78.25h36.23c0.578,0,1.052,0.472,1.052,1.051l0,0
				c0,0.579-0.474,1.051-1.052,1.051h-36.23c-0.578,0-1.053-0.472-1.053-1.051l0,0C224.121,78.723,224.596,78.25,225.174,78.25z"/>
			<rect x="242.44" y="60.865" fill-rule="evenodd" clip-rule="evenodd" fill="#0F1630" width="1.697" height="9.797"/>
			<ellipse fill-rule="evenodd" clip-rule="evenodd" fill="#FFFFFF" cx="243.289" cy="80.36" rx="17.059" ry="1.876"/>
		</g>
		<path fill-rule="evenodd" clip-rule="evenodd" fill="#FFFFFF" d="M336.61,136.329c-0.258,0-0.467-0.209-0.467-0.467
			c0-0.258,0.209-0.467,0.467-0.467h13.58l0,0c1.115,0,2.122-0.451,2.853-1.181c0.729-0.73,1.182-1.739,1.182-2.852
			c0-1.114-0.452-2.123-1.182-2.853c-0.73-0.729-1.737-1.181-2.853-1.181c-0.716,0-1.387,0.185-1.967,0.51
			c-0.601,0.336-1.108,0.823-1.471,1.412c-0.134,0.219-0.423,0.289-0.642,0.153c-0.22-0.135-0.288-0.422-0.152-0.643
			c0.442-0.721,1.069-1.32,1.813-1.736c0.717-0.401,1.542-0.631,2.418-0.631c1.372,0,2.613,0.557,3.513,1.455
			c0.898,0.899,1.454,2.141,1.454,3.513c0,1.371-0.556,2.612-1.454,3.512c-0.896,0.896-2.134,1.451-3.5,1.455h-0.013l0,0H336.61
			L336.61,136.329z M334.058,135.395c0.258,0,0.468,0.209,0.468,0.467c0,0.258-0.21,0.467-0.468,0.467h-1.522
			c-0.258,0-0.467-0.209-0.467-0.467c0-0.258,0.209-0.467,0.467-0.467H334.058z"/>
		<path fill-rule="evenodd" clip-rule="evenodd" fill="#ADDBEE" d="M348.885,138.513c-0.258,0-0.467,0.209-0.467,0.466
			c0,0.258,0.209,0.467,0.467,0.467h5.02l0,0c1.115,0,2.122,0.452,2.853,1.182c0.729,0.73,1.182,1.738,1.182,2.852
			s-0.452,2.122-1.182,2.852c-0.73,0.73-1.737,1.182-2.853,1.182c-0.716,0-1.387-0.186-1.967-0.51
			c-0.601-0.336-1.108-0.824-1.471-1.412c-0.134-0.22-0.423-0.288-0.642-0.153c-0.22,0.135-0.288,0.422-0.152,0.642
			c0.442,0.721,1.068,1.321,1.813,1.737c0.718,0.401,1.543,0.629,2.419,0.629c1.372,0,2.613-0.556,3.512-1.455
			c0.898-0.898,1.455-2.14,1.455-3.512s-0.557-2.613-1.454-3.512c-0.896-0.896-2.134-1.452-3.5-1.455h-0.013l0,0H348.885
			L348.885,138.513z M346.332,139.446c0.259,0,0.468-0.209,0.468-0.467c0-0.257-0.209-0.466-0.468-0.466h-1.522
			c-0.258,0-0.467,0.209-0.467,0.466c0,0.258,0.209,0.467,0.467,0.467H346.332z"/>
		<g>
			<path fill-rule="evenodd" clip-rule="evenodd" fill="#AAD3F0" d="M205.334,91.729h-38.24c-0.703,6.479-6.23,11.565-12.888,11.565
				h-24.67v68.206h75.798V91.729z"/>
			<path fill-rule="evenodd" clip-rule="evenodd" fill="#C4E1F5" d="M203.555,90.542h-36.388
				c-0.114,7.033-5.901,12.752-12.961,12.752h-26.45v66.824h75.799V90.542z"/>
			<path fill-rule="evenodd" clip-rule="evenodd" fill="#FFFFFF" d="M197.146,96.949v66.76h-62.983v-60.416h20.042
				c4.716,0,8.864-2.553,11.134-6.345H197.146z"/>
		</g>
		<g>
			<g>
				<path fill-rule="evenodd" clip-rule="evenodd" fill="#F4AD85" d="M231.17,203.348l-1.779-1.059c0,0-4.338,3.014-5.592,5.973
					c-1.253,2.959-2.461,6.352-4.514,15.912c-2.055,9.559-2.556,13.07-3.559,16.078c-1.004,3.008-14.473,25.451-14.473,25.451
					l5.174-0.053c0,0,13.311-17.377,15.416-21.088C223.95,240.854,234.781,225.108,231.17,203.348z"/>
				<path fill-rule="evenodd" clip-rule="evenodd" fill="#EF8871" d="M221.271,215.767c-0.575,2.146-1.223,4.849-1.986,8.407
					c-0.675,3.137-1.182,5.623-1.594,7.652c0.527,2.193,1.436,5.902,1.751,6.803c0.454,1.299,0.39,3.768-0.78,6.041
					c-1.17,2.274-10.515,17.228-10.845,17.647c-0.331,0.421-3.06,0.468-4.445-0.07c-1.389,2.341-1.85,3.008-2.071,3.377l0.057,0.093
					l5.266,0.207c0,0,13.115-17.65,15.221-21.361c1.5-2.642,7.424-11.389,9.406-24.063c-4.654-2.675-8.889-4.974-8.889-4.974
					L221.271,215.767z"/>
				<path fill-rule="evenodd" clip-rule="evenodd" fill="#0F1630" d="M229.649,202.116c0,0-4.245,2.108-6.276,6.144
					c-2.03,4.037-3.309,11.006-3.309,11.006s1.028,1.88,2.732,2.131C224.502,221.646,229.649,202.116,229.649,202.116z"/>
				<path fill-rule="evenodd" clip-rule="evenodd" fill="#BE865E" d="M231.471,265.566h-32.719
					c-13.975,0-25.406,11.432-25.406,25.406h22.896c16.426,0,27.709-3.152,33.018-16.925
					C230.101,271.869,230.869,268.944,231.471,265.566z"/>
				<path fill-rule="evenodd" clip-rule="evenodd" fill="#EF8871" d="M250.751,119.815l0.526,0.522c0,0,0.136,2.469,0.102,4.717
					c-0.036,2.247-0.024,3.034,0.126,3.585c0.149,0.551-4.413,2.231-4.413,2.231l-0.922-1.579c0,0-1.914-1.54-1.939-2.417
					C244.205,125.999,250.751,119.815,250.751,119.815z"/>
				<path fill-rule="evenodd" clip-rule="evenodd" fill="#01020E" d="M227.647,396.817v-85.794c0-0.569-0.466-1.036-1.036-1.036
					h-0.764c-0.569,0-1.035,0.467-1.035,1.036v85.794c0,0.569,0.466,1.035,1.035,1.035h0.764
					C227.182,397.853,227.647,397.387,227.647,396.817z"/>
				<path fill-rule="evenodd" clip-rule="evenodd" fill="#ED806A" d="M289.06,386.908l-0.997-1.299c0,0-0.228-9.015-0.591-10.503
					c-0.364-1.486-7.896-1.114-7.986-0.186c-0.092,0.931,3.176,9.619,3.357,12.268c0.182,2.649-1.903,9.363-1.903,9.363
					s-1.091,1.602-0.002,1.881s3.722,1.161,4.766,0.141C286.746,397.55,290.014,390.44,289.06,386.908z"/>
				<path fill-rule="evenodd" clip-rule="evenodd" fill="#FFFFFF" d="M288.063,385.609c0,0,0.681-0.603,1.315-0.418
					c0.636,0.186,3.99,2.27,5.194,5.317c0,0,0.229,0.839-0.36,1.699s-7.305,9.874-7.305,9.874s-0.863,0.773-2.359,0.773
					c-1.498,0-12.389,0-12.389,0s-0.782-0.514-0.613-1.076c0.17-0.561,0.317-0.952,2.133-1.371c1.815-0.418,5.219-1.463,6.217-3.832
					c0,0,0.386-0.164,1.044-0.024c0.657,0.14,3.039,0.836,3.675,0.767S288.971,390.627,288.063,385.609z"/>
				<path fill-rule="evenodd" clip-rule="evenodd" fill="#ACC3E2" d="M293.94,389.268c0.245,0.393,0.46,0.808,0.632,1.241
					c0,0,0.229,0.839-0.36,1.699s-7.305,9.874-7.305,9.874s-0.863,0.773-2.359,0.773c-1.499,0-12.389,0-12.389,0
					s-0.782-0.514-0.613-1.076c0.865-0.045,13.426-0.63,14.033-1.148C286.186,400.112,293.933,389.279,293.94,389.268z"/>
				<path fill-rule="evenodd" clip-rule="evenodd" fill="#060E26" d="M245.576,276c-1.512,6.689-2.441,12.163-2.441,15.512
					c0,9.891,18.898,69.524,28.795,98.299c0.331,0.965,8.351-0.944,15.29-10.333c6.938-9.389,8.267-14.695,7.449-16.43
					c-0.816-1.735-22.857-60.209-24.694-68.372c-1.837-8.164,20.613-54.597,24.288-64.394c3.033-8.09-0.755-34.969-14.408-37.707
					c-1.526-0.139-2.533-0.201-2.766-0.214l-0.062,0.003l-9.014,10.284L245.576,276z"/>
				<path fill-rule="evenodd" clip-rule="evenodd" fill="#01051A" d="M243.881,296.965c0.674,3.396,1.775,7.893,3.179,13.129
					c3.582-3.148,8.922-6.896,13.676-6.436c8.057,0.78,20.532,47.952,21.053,55.229c0.391,5.466-8.308,13.276-14.314,17.708
					c1.604,4.837,3.114,9.312,4.456,13.215c0.331,0.965,8.351-0.944,15.29-10.333c6.938-9.389,8.267-14.695,7.449-16.43
					c-0.816-1.735-22.857-60.209-24.694-68.372c-1.837-8.164,20.613-54.597,24.288-64.394c1.821-4.857,1.182-16.488-2.575-25.601
					l-19.167-7.177l-4.507,5.143l-2.297,7.506c2.674,0.558,6.692,1.896,9.053,5.071c3.77,5.068,5.719,25.796-2.599,44.77
					C263.864,278.942,243.713,295.854,243.881,296.965z"/>
				<path fill-rule="evenodd" clip-rule="evenodd" fill="#272D47" d="M227.711,303.737h-2.964c-2.212,0-4.022,1.81-4.022,4.021
					v3.899c0,2.212,1.811,4.021,4.022,4.021h2.964c2.212,0,4.021-1.81,4.021-4.021v-3.899
					C231.732,305.547,229.923,303.737,227.711,303.737z"/>
				<path fill-rule="evenodd" clip-rule="evenodd" fill="#0F1630" d="M246.882,305.736L246.882,305.736
					c0-1.562-1.278-2.839-2.841-2.839h-35.625c-1.563,0-2.84,1.277-2.84,2.839l0,0c0,1.563,1.277,2.841,2.84,2.841h35.625
					C245.604,308.577,246.882,307.299,246.882,305.736z"/>
				<path fill-rule="evenodd" clip-rule="evenodd" fill="#01020E" d="M250.905,302.434L250.905,302.434
					c0-1.76-1.439-3.199-3.199-3.199h-42.901c-1.76,0-3.199,1.439-3.199,3.198v0.001c0,1.76,1.439,3.199,3.199,3.199h42.901
					C249.466,305.633,250.905,304.193,250.905,302.434z"/>
				<g>
					<path fill-rule="evenodd" clip-rule="evenodd" fill="#ED806A" d="M315.381,377.431c0,0-1.633,11.291-1.588,12.267
						c0.046,0.976,0.861,2.416,0.861,2.416l-0.317,2.37c0,0-4.4,3.159-6.896,3.578c-2.496,0.418-6.08,0.604-7.26,0.232
						c-1.18-0.373-1.034-1.103-1.034-1.103s6.116-3.73,7.841-6.146c1.724-2.417,1.679-13.94,1.679-14.591
						C308.666,375.805,315.381,377.431,315.381,377.431z"/>
					<path fill-rule="evenodd" clip-rule="evenodd" fill="#FFFFFF" d="M313.93,402.855h-24.414c0,0-0.861-0.403-0.68-1.217
						c0.181-0.813,0.839-1.463,1.338-1.557c0.5-0.092,4.899-0.254,8.53-2.996c0,0,4.085,0.976,4.855,1.068
						c0.771,0.093,7.374-2.184,11.095-6.041c0,0,0.771,0.813,0.907,1.486C315.698,394.274,316.151,400.059,313.93,402.855z"/>
					<path fill-rule="evenodd" clip-rule="evenodd" fill="#ACC3E2" d="M313.93,402.855h-24.414c0,0-0.861-0.403-0.68-1.217
						c0.068-0.307,0.205-0.591,0.375-0.83c0.506,0.41,1.341,0.614,1.933,0.651c0.811,0.053,23.807-0.585,23.825-0.585
						C314.713,401.612,314.376,402.294,313.93,402.855z"/>
				</g>
				<path fill-rule="evenodd" clip-rule="evenodd" fill="#0F1630" d="M279.735,105.159l-4.146,4.773
					c-0.931,16.156-19.475,29.052-14.517,44.089c1.68,5.093,6.483,9.396,16.711,11.407
					C307.58,171.284,279.735,105.159,279.735,105.159z"/>
				<path fill-rule="evenodd" clip-rule="evenodd" fill="#01020E" d="M260.35,150.757c0.127,1.079,0.359,2.166,0.723,3.264
					c1.68,5.093,6.483,9.396,16.711,11.407c0.142,0.027,0.273,0.042,0.413,0.068l9.022-1.525l0.007-0.005
					c-0.012-0.139-0.767-9.331,4.063-17.786c-1.341-13.648-7.473-30.61-10.218-37.681c-2.175,0.436-3.595,1.485-3.483,3.528
					c0.084,1.538,0.152,2.965,0.165,4.31c0.137,13.664-9.484,15.834-14.935,28.022L260.35,150.757z"/>
				<path fill-rule="evenodd" clip-rule="evenodd" fill="#0F1630" d="M300.199,85.545l9.122,1.306c0,0,10.8,31.754-7.865,52.419
					C282.79,159.935,300.199,85.545,300.199,85.545z"/>
				<path fill-rule="evenodd" clip-rule="evenodd" fill="#01020E" d="M294.347,141.892c-2.843-3.902-1.239-18.583,1.003-31.981
					c2.83,0.679,4.847,1.31,4.847,1.31l7.39,3.296c0,0-0.002,15.623-10.835,24.992C295.872,140.27,295.072,141.068,294.347,141.892z
					"/>
				<path fill-rule="evenodd" clip-rule="evenodd" fill="#0F1630" d="M291.64,377.065c0.023,3.675-0.646,4.927,0.811,5.862
					c4.589,2.947,21.959-0.868,24.716-2.961c0.745-0.564,1.396-1.605,1.247-3.52c-0.323-4.156-2.586-37.101-1.729-86.207
					c0.249-14.265,0-28.007-0.632-40.5c-0.103-1.18-3.347-38.449-7.265-47.092c-3.978-8.773-31.688-10.288-31.754-10.291
					c-1.374,20.527,6.197,31.478,6.973,41.503C286.742,269.182,291.372,334.662,291.64,377.065z"/>
				<path fill-rule="evenodd" clip-rule="evenodd" fill="#030B21" d="M291.64,377.065c0.023,3.675-0.646,4.927,0.811,5.862
					c4.589,2.947,21.959-0.868,24.716-2.961c0.745-0.564,1.396-1.605,1.247-3.52c-0.323-4.156-2.586-37.101-1.729-86.207
					c0.249-14.265,0-28.007-0.632-40.5c-0.103-1.18-3.347-38.449-7.265-47.092c-3.978-8.773-31.688-10.288-31.754-10.291
					c-0.939,14.039,2.304,23.597,4.697,31.446c0.75-4.299,2.276-8.999,5.385-9.944c5.978-1.82,13.254-1.3,17.413,8.967
					c4.159,10.266,5.849,44.314,6.368,81.481s-1.039,60.948-6.497,64.326c-3.241,2.007-8.819,2.775-12.815,3.069
					C291.61,373.526,291.63,375.317,291.64,377.065z"/>
				<path fill-rule="evenodd" clip-rule="evenodd" fill="#FFFFFF" d="M260.047,159.909c-0.284,0.278-1.763,0.014-2.118-0.238
					c-0.354-0.251-3.34-16.914-6.167-32.11c-0.046-0.247-0.419-0.26-0.419-0.26s-3.421,2.479-5.485,2.226
					c0,0-0.35,0.433-0.293,0.594c0.059,0.162,1.313,28.204,5.006,37.96c1.771,4.672,6.988,7.547,11.107,4.946
					c7.076-4.469,12.28-8.457,18.581-18.076c2.488-3.801,6.055-14.381,1.804-20.284c-1.13-1.565-4.108,1.181-5.548,3.1
					C275.077,139.685,260.047,159.909,260.047,159.909z"/>
				<path fill-rule="evenodd" clip-rule="evenodd" fill="#E2ECF7" d="M260.047,159.909c-0.138,0.136-0.561,0.142-0.999,0.084
					l-2.524,5.669c0,0,6.061,2.471,11.29,3.16c4.276-3.281,8.1-7.237,12.445-13.871c2.488-3.8,6.054-14.381,1.804-20.284
					c-1.13-1.565-4.108,1.181-5.548,3.1C275.077,139.685,260.047,159.909,260.047,159.909z"/>
				<path fill-rule="evenodd" clip-rule="evenodd" fill="#E2ECF7" d="M251.884,128.221l-0.122-0.66
					c-0.046-0.247-0.419-0.26-0.419-0.26s-3.421,2.479-5.485,2.226c0,0-0.35,0.433-0.293,0.594
					c0.045,0.126,0.813,17.08,2.886,29.213c1.332-0.246,1.761-4.596,1.761-4.596s-2.275-18.908-2.275-21.897
					C247.936,131.35,249.907,129.601,251.884,128.221z"/>
				<path fill-rule="evenodd" clip-rule="evenodd" fill="#ACC3E2" d="M269.533,195.625c0,0,23.021,6.144,38.323,1.066
					c0,0,0.461-0.104,0.712,0.874c0.25,0.979,0.547,3.85,0.593,4.228c0.047,0.377-0.373,0.856-0.373,0.856
					s-11.822,8.839-40.774-0.001c0,0-0.307-0.245-0.322-0.87c-0.014-0.625,1.042-5.554,1.132-5.783
					C268.912,195.765,269.533,195.625,269.533,195.625z"/>
				<path fill-rule="evenodd" clip-rule="evenodd" fill="#FFFFFF" d="M303.947,134.085c-5.114-0.19-14.825-1.529-21.215-0.479
					c-0.585,0.097-1.624,0.437-2.833,1.001c-1.985,0.929-6.898,8.341-10.333,14.212c-5.802,9.918-3.646,11.547-0.476,23.469
					c0.756,5.567,0.802,12.851,0.524,20.445l0,0c-0.073,1.962-0.399,3.82-0.918,5.841l0.008-0.025
					c5.056,1.286,10.779,2.405,16.705,2.926c9.296,0.816,17.288-0.848,22.993-2.737c-0.384-2.357-0.545-3.649-0.548-3.689
					c0.287-8.3,1.162-13.494,2.664-17.89v-0.001c3.412-14.595,3.538-17.989,3.538-17.989l1.283-6.984
					c-1.168-0.62-1.767-1.722-1.083-3.558c2.198-5.896-0.039-9.559-0.055-9.585c-2.725-1.959-5.744-3.412-7.12-3.921
					c-1.746-0.643-3.138-1.037-3.138-1.037L303.947,134.085z"/>
				<path fill-rule="evenodd" clip-rule="evenodd" fill="#E2ECF7" d="M303.947,134.085c-1.409-0.052-4.341,0.588-6.285,0.435
					c0.005,0.008,8.989,4.668,9.402,15.343c0.211,5.46-4.204,14.364-10.561,14.319c-7.806-0.056-27.643-3.489-30.495-6.535
					c-0.434,3.871,1.131,7.309,3.082,14.643c0.107,0.796,0.201,1.626,0.281,2.487c6.33-0.109,16.573-0.808,16.573-0.808l3.249-2.08
					l1.69,2.08c0,0,5.718,1.819,7.667,3.898c1.949,2.08-0.13,9.747-0.13,9.747l-20.662-5.068l-1.3,5.328l8.122,2.372
					c0,0,6.822,3.119,9.097,4.191c1.614,0.761-0.488,4.896-1.844,7.23c6.559-0.183,12.226-1.489,16.568-2.928
					c-0.384-2.357-0.545-3.649-0.548-3.689c0.287-8.3,1.162-13.494,2.664-17.89v-0.001c3.412-14.595,3.538-17.989,3.538-17.989
					l1.283-6.984c-1.168-0.62-1.767-1.722-1.083-3.558c2.198-5.896-0.039-9.559-0.055-9.585c-2.725-1.959-5.744-3.412-7.12-3.921
					c-1.746-0.643-3.138-1.037-3.138-1.037L303.947,134.085z"/>
				<path fill-rule="evenodd" clip-rule="evenodd" fill="#0F1630" d="M302.605,133.454c-4.462-0.167-12.931-1.334-18.505-0.418
					c-0.479,0.079-1.304,0.344-2.272,0.783c-1.014,5.577,3.042,9.616,11.13,8.44c5.827-0.847,10.207-5.402,12.244-7.95
					c-1.458-0.532-2.6-0.854-2.6-0.854H302.605z"/>
				<path fill-rule="evenodd" clip-rule="evenodd" fill="#E8685B" d="M298.787,115.808l-0.094,4.381c0,0,0.19,8.967,0.22,10.328
					c0.021,0.979,0.525,2.251,3.367,2.865c0.111,0.023,0.382-0.017,0.322,0.072c-4.587,6.953-20.298,8.806-18.427-0.426
					c0.006-0.031,0.061-0.029,0.09-0.043c3.551-1.721,3.133-10.154,1.342-12.337C284.068,118.774,298.787,115.808,298.787,115.808z"
					/>
				<path fill-rule="evenodd" clip-rule="evenodd" fill="#0F1630" d="M272.106,90.289c2.095-9.917,14.942-15.58,20.025-11.186
					c0,0,4.662-6.297,12.227,0.098c8.394,7.093,8.706,26.125,1.099,31.701c-11.37,4.676-17.403,4.759-18.107,4.751
					c-0.323-4.681-2.197-6.807-9.704-7.433c-7.655-0.637-6.681-11.209-6.167-14.596C271.671,92.471,271.881,91.356,272.106,90.289
					L272.106,90.289z M287.384,119.046l-0.002,0.096v0.023l-0.001,0.074l-0.003,0.098l0,0l-0.002,0.099l-0.003,0.076l-0.001,0.022
					l-0.017-0.054C287.37,119.333,287.38,119.189,287.384,119.046z"/>
				<path fill-rule="evenodd" clip-rule="evenodd" fill="#01020E" d="M310.553,91.77c1.188,7.562-0.522,15.778-5.096,19.131
					c-11.37,4.676-17.403,4.758-18.107,4.751c-0.323-4.681-2.197-6.807-9.704-7.433c-5.442-0.453-6.522-5.929-6.508-10.274
					c18.325,7.25,25.521-6.356,25.521-6.356C308.293,103.087,310.303,93.42,310.553,91.77L310.553,91.77z M287.384,119.046
					l-0.002,0.097v0.022l-0.001,0.074l-0.003,0.098l0,0l-0.002,0.099l-0.003,0.076l-0.001,0.022l-0.017-0.055
					C287.37,119.334,287.38,119.189,287.384,119.046z"/>
				<circle fill-rule="evenodd" clip-rule="evenodd" fill="#E8685B" cx="305.457" cy="110.9" r="4.196"/>
				<path fill-rule="evenodd" clip-rule="evenodd" fill="#F4AD85" d="M288.208,86.745L288.208,86.745
					c7.883-0.61,14.829,5.339,15.439,13.22l1.009,13.021c0.61,7.882-5.339,14.829-13.22,15.439h-0.001
					c-7.88,0.61-14.827-5.338-15.438-13.22l-1.009-13.022C274.38,94.302,280.328,87.354,288.208,86.745z"/>
				<path fill-rule="evenodd" clip-rule="evenodd" fill="#EF8871" d="M288.209,86.746L288.209,86.746
					c7.882-0.61,14.828,5.338,15.439,13.219l1.008,13.023c0.475,6.126-3.015,11.687-8.293,14.146
					c3.641-3.943,5.68-9.713,5.179-14.721c-0.768-7.681-7.011-10.646-8.817-10.318c-1.81,0.329-9.903,1.608-14.082,2.818
					c-1.44,0.417-2.51,1.155-3.29,1.943l-0.363-4.672C274.38,94.303,280.328,87.354,288.209,86.746z"/>
				<path fill-rule="evenodd" clip-rule="evenodd" fill="#01020E" d="M306.021,106.742l-3.177-1.048c0,0-1.362,3.857,1.628,4.925
					l-0.138-1.784C304.265,107.94,304.621,106.851,306.021,106.742z"/>
				<path fill-rule="evenodd" clip-rule="evenodd" fill="#0F1630" d="M302.607,105.641c0.078,0.021,0.157,0.04,0.237,0.054
					l1.882,1.074l-0.059-0.871l2.777-2.093l-0.396-14.449l-9.541-1.808l-5.252-3.125l-10.474,2.243c0,0-5.405,4.176-5.877,5.019
					c-0.166,0.299-0.591,1.789-1.069,3.586l-2.48,3.185l1.082,2.285c-0.309,1.238-0.517,2.094-0.517,2.094l2.238,1.542
					c0,0,12.192-2.103,14.915-2.949c2.721-0.848,5.361-3.428,5.832-6.121C295.906,95.305,296.61,104.194,302.607,105.641z"/>
				<path fill-rule="evenodd" clip-rule="evenodd" fill="#01020E" d="M302.607,105.641c0.078,0.021,0.157,0.04,0.237,0.054
					l1.882,1.074l-0.059-0.871l2.777-2.093l-0.188-6.902c-2.053,0.753-6.72,0.454-11.975-4.74c0,0-5.491,12.415-22.895,6.252
					l-0.032,0.041l1.082,2.285c-0.309,1.238-0.517,2.094-0.517,2.094l2.238,1.542c0,0,12.192-2.103,14.915-2.949
					c2.721-0.848,5.361-3.428,5.832-6.121C295.906,95.305,296.61,104.194,302.607,105.641z"/>
				<path fill-rule="evenodd" clip-rule="evenodd" fill="#272D47" d="M301.838,77.454c-4.573,14.439-19.436,24.575-30.256,15.563
					c0.163-0.937,0.34-1.85,0.524-2.728c0.384-1.818,1.131-3.491,2.123-4.988c9.617,7.341,23.64,3.417,24.941-8.83
					C299.997,76.631,300.887,76.943,301.838,77.454z"/>
				<g>
					<g>
						<circle fill-rule="evenodd" clip-rule="evenodd" fill="#E8685B" cx="280.625" cy="118.846" r="1.888"/>
						<circle fill-rule="evenodd" clip-rule="evenodd" fill="#E8685B" cx="296.727" cy="116.712" r="1.889"/>
					</g>
					<path fill-rule="evenodd" clip-rule="evenodd" fill="#01020E" d="M277.355,107.772c-0.207,0.16-0.246,0.461-0.086,0.669
						c0.161,0.208,0.462,0.247,0.673,0.085c0.946-0.721,2.284-0.961,3.413-0.575c0.25,0.085,0.523-0.049,0.609-0.299
						c0.085-0.251-0.049-0.524-0.299-0.609C280.12,106.515,278.657,106.891,277.355,107.772z"/>
					<path fill-rule="evenodd" clip-rule="evenodd" fill="#01020E" d="M290.521,105.55c-0.22,0.142-0.282,0.438-0.14,0.66
						c0.144,0.222,0.439,0.284,0.663,0.138c1.021-0.634,2.336-0.78,3.449-0.295c0.241,0.105,0.525-0.006,0.631-0.248
						c0.105-0.241-0.007-0.527-0.248-0.632C293.353,104.509,291.912,104.786,290.521,105.55z"/>
					<g>
						<path fill-rule="evenodd" clip-rule="evenodd" fill="#01020E" d="M291.4,117.961c0.337,2.1-1.091,4.074-3.189,4.411
							c-2.1,0.337-4.075-1.09-4.412-3.19l0.007-0.001c-0.059-0.361,0.189-0.704,0.551-0.761l6.276-1.009
							c0.36-0.058,0.704,0.191,0.762,0.551L291.4,117.961z"/>
						<path fill-rule="evenodd" clip-rule="evenodd" fill="#D64341" d="M290.46,121.148c-0.567,0.63-1.346,1.079-2.249,1.224
							c-0.737,0.119-1.46,0.02-2.103-0.25c0.167-0.828,0.927-1.547,1.949-1.751C289.033,120.176,289.967,120.508,290.46,121.148z"/>
						<path fill-rule="evenodd" clip-rule="evenodd" fill="#FFFFFF" d="M284.568,118.385l5.899-0.948
							c0.197,0.638,0.003,1.345-0.413,1.56c-0.507,0.26-4.794,0.834-5.15,0.547C284.734,119.405,284.63,118.885,284.568,118.385z"/>
					</g>
					<path fill-rule="evenodd" clip-rule="evenodd" fill="#01020E" d="M295.044,111.271c0.106,0.018,0.215,0.042,0.322,0.072
						c0.217,0.061,0.447-0.068,0.509-0.286s-0.068-0.449-0.286-0.51c-0.905-0.254-1.827-0.167-2.688,0.2
						c-0.376,0.16-0.787,0.393-1.096,0.661c-0.08,0.071-0.128,0.167-0.139,0.267c-0.021,0.087-0.014,0.181,0.025,0.267
						c0.094,0.205,0.342,0.296,0.551,0.2c1.011-0.419,2.146-0.403,3.089,0.184c0.192,0.119,0.449,0.059,0.569-0.134
						c0.118-0.192,0.059-0.45-0.133-0.568C295.534,111.479,295.293,111.362,295.044,111.271z"/>
					<path fill-rule="evenodd" clip-rule="evenodd" fill="#01020E" d="M278.949,113.316c-0.1,0.044-0.197,0.095-0.292,0.149
						c-0.196,0.114-0.451,0.047-0.564-0.149c-0.114-0.196-0.047-0.452,0.149-0.565c0.813-0.471,1.727-0.618,2.651-0.478
						c0.403,0.061,0.86,0.184,1.227,0.366c0.097,0.049,0.165,0.13,0.201,0.225c0.041,0.078,0.058,0.17,0.041,0.264
						c-0.04,0.223-0.256,0.373-0.483,0.331c-1.084-0.152-2.177,0.147-2.944,0.951c-0.156,0.163-0.42,0.169-0.584,0.013
						c-0.163-0.157-0.17-0.42-0.013-0.585C278.527,113.639,278.732,113.465,278.949,113.316z"/>
				</g>
				<path fill-rule="evenodd" clip-rule="evenodd" fill="#01020E" d="M243.75,184.317l-2.562,18.718
					c-0.085,0.617,1.24,0.061,1.841,0.162c60.534,10.15,58.427-63.928,32.173-45.114c-8.43,6.041-18.481-4.665-18.481-4.665
					l-9.79,6.473L243.75,184.317z"/>
				<path fill-rule="evenodd" clip-rule="evenodd" fill="#0F1630" d="M292.237,164.875c-1.624-8.578-7.849-13.376-17.035-6.792
					c-8.43,6.041-18.482-4.665-18.482-4.665l-9.789,6.473l-2.386,18.322c2.334,2.072,4.379,2.955,4.379,2.955l8.824-2.206
					c0,0-3.778,14.036,5.098,9.908c8.877-4.128,11.809-16.661,12.904-20.387C278.301,159.813,288.83,155.553,292.237,164.875z"/>
				<path fill-rule="evenodd" clip-rule="evenodd" fill="#01020E" d="M260.586,163.976c0.893,8.315,1.278,17.529,4.652,23.642
					c0,0,1.095,1.462-0.056,2.796c-1.15,1.333-4.398,6.456-17.079,8.103c-33.773,4.388-25.329-17.985-25.68-28.519L260.586,163.976z
					"/>
				<path fill-rule="evenodd" clip-rule="evenodd" fill="#0F1630" d="M260.586,163.976c0.887,8.265,1.274,17.417,4.592,23.532
					c-0.727,0.518-1.504,0.976-2.332,1.361c-8.876,4.128-5.098-9.908-5.098-9.908l-8.824,2.206c0,0-8.535-3.683-10.624-13.675
					L260.586,163.976z"/>
				<path fill-rule="evenodd" clip-rule="evenodd" fill="#915E40" d="M179.226,302.797c0,0,31.891,0,51.747,0
					c19.855,0,33.495-3.812,39.913-20.459s9.427-69.195-20.658-69.195h-3.437v71.213h-40.667L179.226,302.797z"/>
				<g>
					<path fill-rule="evenodd" clip-rule="evenodd" fill="#EF8871" d="M195.988,397.112c0,0,4.74-3.301,4.921-6.962
						c0.18-3.661-4.729-17.268-4.729-17.268l7.953,0.647l4.278,18.96c0,0,0.029,0.942,0.644,1.558
						c0.616,0.615-0.764,2.464-1.214,2.584c-0.45,0.119-3.781,1.2-4.892,1.41s-3.361,0.6-3.602,0.63
						C199.108,398.702,196.497,398.192,195.988,397.112z"/>
					<path fill-rule="evenodd" clip-rule="evenodd" fill="#272D47" d="M190.075,399.074c2.341-1.26,5.731-2.88,5.731-2.88
						s0.676-0.346,1.291,0.314c0.614,0.66,1.26,1.351,1.26,1.351s0.57,0.63,2.355-0.15c1.786-0.781,8.342-3.661,8.342-3.661
						s0.616-0.029,0.616,0.615s0,7.073,0,7.073s-0.09,1.119-1.44,1.119c-1.187,0-15.356,0-18.77,0
						C186.758,402.855,187.795,400.303,190.075,399.074z"/>
					<path fill-rule="evenodd" clip-rule="evenodd" fill="#272D47" d="M140.227,376.076c0,0,0.739,1.83,2.149,2.294
						s12.208-5.245,12.208-5.245s0.704-0.159,0.855,0.243c0.151,0.401-0.05,1.5-0.188,3.386c-0.138,1.885-0.14,1.916-0.182,2.484
						s-0.285,1.017-1.198,0.95c-0.913-0.067-3.142-0.229-3.142-0.229s-5.641,3.693-6.873,4.085
						c-1.232,0.392-3.201-0.053-5.244-0.699c-2.044-0.646-3.216-1.273-3.787-1.495c-0.57-0.223-1.132-1.377-0.118-2.506
						c1.016-1.13,4.252-3.421,4.252-3.421S139.453,375.554,140.227,376.076z"/>
					<path fill-rule="evenodd" clip-rule="evenodd" fill="#EF8871" d="M140.227,376.076c0,0,6.372-4.018,7.807-5.537
						s8.342-16.962,8.342-16.962l6.8,4.107c0,0-6.416,11.206-7.192,12.773c-0.777,1.568-1.367,3.872-1.367,3.872
						s-9.363,4.61-11.724,4.799C140.531,379.317,139.68,376.969,140.227,376.076z"/>
					<path fill-rule="evenodd" clip-rule="evenodd" fill="#01020E" d="M171.051,295.769c-1.641-8.481-7.506-20.667,45.571-29.059
						c2.233-0.354,3.776-2.649,6.225-2.988c35.417,6.093,51.561,21.152,2.331,25.866c-39.84,3.815-28.209,17.386-28.209,17.386
						c3.057,25.772,6.024,51.398,11.114,76.853c0.226,1.128,0.3,2.031-0.294,2.868s-4.695,1.745-6.225,1.846s-1.68-0.577-1.68-0.577
						C192.613,357.966,176.736,325.179,171.051,295.769z"/>
					<path fill-rule="evenodd" clip-rule="evenodd" fill="#030B21" d="M224.66,259.426c-1.827,0.822-4.971,7.899-7.258,8.745
						c-9.016,3.333-20.523,6.856-25.975,10.549c-5.818,3.941-8.217,9.702-9.992,14.294c-2.08,5.379-24.098,56.127-29.941,68.858h0
						c0,0-0.6,1.497,1.231,2.801c1.83,1.305,4.225,2.156,5.176,2.282c0.461,0.061,0.798-0.095,1.022-0.271
						c7.048-11.116,36.532-57.549,45.316-70.341l35.376,0.051c0,0,3.188-0.513,7.324-2.126c0.027-0.019,15.969-10.464,8.605-30.677
						l-12.455-5.616c-7.187-0.967-5.814-12.83-15.34-8.171C221.241,252.988,227.617,259.453,224.66,259.426z"/>
					<path fill-rule="evenodd" clip-rule="evenodd" fill="#01020E" d="M224.66,259.426c-1.827,0.823-4.971,7.899-7.258,8.745
						c-0.73,0.27-1.479,0.541-2.236,0.813c0,0,14.885-4.934,21.5,2.416c6.615,7.351,5.88,18.229-15.143,18.964
						c-21.021,0.735-16.959,0.735-19.963,0c-3.004-0.734-25.617,44.835-31.521,51.303c-2.275,2.493-5.781,1.446-9.229-0.781
						c-4.162,9.498-7.521,17.25-9.378,21.224c-0.086,0.475-0.096,1.575,1.293,2.563c1.83,1.305,4.225,2.156,5.176,2.282
						c0.748,0.098,1.169-0.374,1.315-0.581c6.68-10.564,36.175-57.144,45.023-70.03l35.377,0.05c0,0,3.188-0.513,7.323-2.127
						c0.045-0.03,15.964-10.474,8.605-30.676l-17.871-2.207c-7.186-0.967-0.397-16.239-9.924-11.58
						C221.241,252.988,227.617,259.453,224.66,259.426z"/>
				</g>
				<path fill-rule="evenodd" clip-rule="evenodd" fill="#FFFFFF" d="M218.885,225.967c-0.307,3.852,1.928,9.706,2.777,13.394
					c2.473,10.723,0.855,20.109-1.141,25.238c0,0,16.145,6.59,36.772-1.044c-0.685-3.342-4.1-17.803-2.032-28.788
					s4.26-15.269,6.407-19.761c0.222-1.706,0.439-3.383,0.635-4.916c-1.038,0.205-2.06,0.361-2.06,0.361l0.3-4.062l0.113-4.575
					c-2.702-1.199-5.767-2.076-8.966-2.595c-5.352-0.867-11.139-0.677-15.651,0.115c-0.264,0.047-5.974,2.381-6.649,2.955
					C225.856,205.288,219.104,223.213,218.885,225.967z"/>
				<path fill-rule="evenodd" clip-rule="evenodd" fill="#E2ECF7" d="M218.885,225.967c-0.259,3.258,1.299,7.947,2.301,11.548
					c3.447-1.345,9.078-2.615,16.678-1.287c12.455,2.177,11.209,17.864,7.402,30.408c3.754-0.548,7.796-1.515,12.028-3.081
					c-0.685-3.342-4.1-17.803-2.032-28.788s4.26-15.269,6.407-19.761c0.222-1.706,0.439-3.383,0.636-4.916
					c-1.039,0.205-2.061,0.361-2.061,0.361l0.302-4.062l0.111-4.574c-2.702-1.2-5.767-2.077-8.966-2.596
					c-5.352-0.867-11.139-0.677-15.65,0.116c-0.096,0.017-0.889,0.326-1.899,0.744c0.119,0.306,0.18,0.701,0.158,1.208
					c-0.156,3.736-0.766,6.464-0.766,6.464s0.153,0.229,0.56,0.099s3.07-2.111,3.07-2.111l0.072,1.998l0.873,0.168
					c0,0,0.875-1.225,1.118-1.371c0.244-0.146,3.606,3.444,4.062,3.834c0.455,0.391,1.43,0.195,2.242-0.975
					c0.812-1.17,3.67-5.23,3.67-5.23s1.657,0.033,2.242,0.813s1.495,10.46,1.495,12.539c0,2.08-3.728,8.188-4.938,9.486
					c-1.21,1.301-22.855,1.766-28.941-1.975C218.962,225.426,218.902,225.746,218.885,225.967z"/>
				<path fill-rule="evenodd" clip-rule="evenodd" fill="#ACC3E2" d="M232.939,267.095c0.291,0.021,0.586,0.04,0.887,0.058
					c0.441-2.402,0.766-5.233,0.992-8.141c0.563-7.234,0.528-14.973,0.219-17.684c-0.222-1.934-0.699-4.266-1.168-6.549
					c-0.631-3.074-1.243-6.063-1.17-7.809c0.127-3.053,6.523-22.5,6.542-22.556c0.076-0.231-0.05-0.482-0.281-0.559
					s-0.481,0.05-0.558,0.282c-0.019,0.055-6.451,19.613-6.584,22.797c-0.077,1.854,0.547,4.892,1.188,8.019
					c0.463,2.259,0.936,4.563,1.154,6.475c0.305,2.672,0.338,10.333-0.222,17.518C233.711,261.871,233.385,264.712,232.939,267.095z
					"/>
				<path fill-rule="evenodd" clip-rule="evenodd" fill="#EB6B5D" d="M248.3,184.183l-0.058,3.868c0,0,0.221,7.915,0.254,9.116
					c0.021,0.766,0.998,1.585,2.606,2.168h-0.001c0,0-2.764,5.887-12.605,6.23c-5.178-1.677-4.258-6.313-4.258-6.313l-0.029-0.007
					l0.053-0.004c0.796-0.068,1.825-0.085,2.756-1.157c1.28-1.479,1.042-7.908-0.326-9.553
					C235.322,186.885,248.3,184.183,248.3,184.183z"/>
				<path fill-rule="evenodd" clip-rule="evenodd" fill="#F4AD85" d="M258.851,225.244l0.92,3.944c0,0,4.344,10.807,4.732,11.716
					c0.39,0.909,0.031,3.938-1.014,7.324c-1.044,3.385-8.307,20.389-8.307,20.389l5.228,1.688c0,0,12.63-22.176,13.45-24.724
					s1.262-5.683,0.54-9.694c-0.721-4.011-4.179-14.316-4.179-14.316S259.729,222.481,258.851,225.244z"/>
				<path fill-rule="evenodd" clip-rule="evenodd" fill="#EF8871" d="M255.9,266.928c-0.445,1.051-0.718,1.689-0.718,1.689
					l5.228,1.688c0,0,12.63-22.176,13.45-24.724c0.067-0.211,0.132-0.425,0.195-0.644c-0.016,0.024-11.988,19.744-13.028,20.848
					C260.242,266.619,257.38,266.879,255.9,266.928z"/>
				<path fill-rule="evenodd" clip-rule="evenodd" fill="#EF8871" d="M258.851,225.244l0.92,3.944c0,0,4.344,10.807,4.732,11.716
					c0.39,0.909,0.031,3.938-1.014,7.324c0,0,2.314-6.873,2.379-9.602c0.065-2.729-1.526-10.916-1.396-11.371
					c0.13-0.454,3.573-3.379,4.288-3.639c0.384-0.14,1.33-0.102,2.123-0.036c-0.257-0.79-0.458-1.399-0.567-1.729l-6.162,0.677
					C261.657,223.107,259.251,223.982,258.851,225.244z"/>
				<path fill-rule="evenodd" clip-rule="evenodd" fill="#0F1630" d="M249.947,198.964l-10.336,6.324l4.078,4.506
					c0,0,0.341,0.34,0.832,0.038c0.49-0.303,7.47-10.344,7.47-10.344l-0.947-1.868l-2.035,0.524L249.947,198.964z"/>
				<polygon fill-rule="evenodd" clip-rule="evenodd" fill="#0F1630" points="237.389,204.828 235.202,199.341 236.313,198.703 
					235.574,198.009 234.013,198.94 233.534,207.751 				"/>
				<g>
					<path fill-rule="evenodd" clip-rule="evenodd" fill="#E8685B" d="M226.874,174.613c-0.104,0.013-0.208,0.029-0.311,0.05
						l-0.003,0.001l0,0c-1.889,0.382-3.332,2.026-3.385,4.035c-0.059,2.335,1.785,4.276,4.119,4.336
						c2.334,0.06,4.275-1.784,4.336-4.117c0.035-1.357-0.572-2.581-1.547-3.38c0.1,1.249-0.109,2.793-1.704,2.938l0.063-2.439
						C228.469,175.049,227.551,174.589,226.874,174.613z"/>
					<path fill-rule="evenodd" clip-rule="evenodd" fill="#E8685B" d="M255.791,174.81c0.104,0.015,0.207,0.033,0.31,0.055
						l0.003,0.001v-0.001c1.884,0.408,3.304,2.072,3.329,4.081c0.027,2.335-1.843,4.251-4.177,4.28
						c-2.335,0.028-4.251-1.842-4.279-4.176c-0.018-1.357,0.607-2.572,1.592-3.358c-0.115,1.248,0.071,2.794,1.664,2.959
						l-0.029-2.438C254.19,175.225,255.115,174.777,255.791,174.81z"/>
				</g>
				<path fill-rule="evenodd" clip-rule="evenodd" fill="#F4AD85" d="M240.678,153.584h-0.002
					c-7.961-0.055-14.521,6.416-14.574,14.377l-0.09,13.167c-0.055,7.963,6.416,14.521,14.377,14.575h0.002
					c7.96,0.055,14.52-6.416,14.574-14.377l0.089-13.167C255.108,160.197,248.638,153.638,240.678,153.584z"/>
				<path fill-rule="evenodd" clip-rule="evenodd" fill="#EF8871" d="M232.223,156.257c-1.836,1.306-3.358,3.028-4.426,5.027
					c-0.295,4.216-1.924,9.634-1.924,9.634s17.627,0.077,18.803,0.085c1.178,0.008,6.105,2.043,6.076,6.308
					c-0.029,4.266,0.642,17.761-10.363,18.393h0.002c7.96,0.054,14.52-6.416,14.574-14.377l0.089-13.167
					c0.027-4.026-1.614-7.692-4.271-10.341C243.809,157.095,236.461,156.414,232.223,156.257z"/>
				<path fill-rule="evenodd" clip-rule="evenodd" fill="#01020E" d="M252.53,174.76c-0.011,1.603,0.183,3.998,2.451,4.013
					l0.014-2.039c0,0,0.303-1.501,2.16-1.49c5.742-6.512,5.063-16.916-0.983-22.349c-6.046-5.433-19.107-5.868-21.394-5.123
					c-2.286,0.745-4.662,4.599-4.662,4.599s-1.924-1.741-3.728-0.855c-1.803,0.886-7.894,12.18-7.913,15.014s6.255,9,6.255,9
					c1.32-0.242,1.313,1.006,1.313,1.006l0.021-3.068c-0.04-2.124,0.023-3.937,1.839-3.893l5.194,0.02
					c0.373,0.003,0.74-0.398,0.824-0.791c0.086-0.394,0.354-3.005,0.44-3.627c0.087-0.621,0.296-0.932,0.42-0.764
					c0.123,0.167,0.191,2.324,0.39,3.715c0.194,1.369,1.121,1.485,1.15,1.489l0,0l11.864,0.062
					C248.187,169.681,248.313,174.199,252.53,174.76z"/>
				<path fill-rule="evenodd" clip-rule="evenodd" fill="#0F1630" d="M257.155,175.245c4.76-5.397,5.107-13.467,1.645-19.165
					c-0.942,0.302-1.602,0.53-1.602,0.53l-5.259,10.242c2.132-0.561,1.747,0.977,1.747,0.977
					C252.533,171.99,257.155,175.245,257.155,175.245z"/>
				<path fill-rule="evenodd" clip-rule="evenodd" fill="#0F1630" d="M260.649,160.619c-0.704-2.96-2.215-5.689-4.478-7.723
					c-6.046-5.433-19.107-5.868-21.394-5.123c-2.286,0.745-4.663,4.599-4.663,4.599s-1.923-1.741-3.727-0.855
					c-1.244,0.611-4.526,6.173-6.451,10.496c0,0.019-0.266,6.311,14.044,6.409c0.114-0.856,0.309-2.729,0.381-3.243
					c0.087-0.621,0.296-0.932,0.421-0.764c0.122,0.167,0.19,2.324,0.389,3.715c0.016,0.107,0.035,0.206,0.058,0.299
					C248.133,168.465,255.671,167.581,260.649,160.619z"/>
				<path fill-rule="evenodd" clip-rule="evenodd" fill="#272D47" d="M256.721,153.418c-0.179-0.179-0.361-0.352-0.549-0.521
					c-1.725-1.549-4.02-2.692-6.472-3.516c-3.698,4.392-14.817,15.462-25.633,4.956c-0.113,0.176-0.228,0.356-0.345,0.542
					c1.677,2.89,5.932,8.137,14.684,8.026C248.94,162.77,254.801,157.085,256.721,153.418z"/>
				<g>
					<circle fill-rule="evenodd" clip-rule="evenodd" fill="#E8685B" cx="229.626" cy="185.935" r="1.735"/>
					<circle fill-rule="evenodd" clip-rule="evenodd" fill="#E8685B" cx="244.554" cy="185.855" r="1.735"/>
				</g>
				<path fill-rule="evenodd" clip-rule="evenodd" fill="#01020E" d="M227.928,175.46c-0.208,0.122-0.277,0.392-0.155,0.6
					c0.122,0.209,0.393,0.279,0.602,0.156c0.946-0.548,2.195-0.612,3.18-0.129c0.219,0.107,0.483,0.015,0.591-0.203
					c0.106-0.218,0.016-0.482-0.203-0.59C230.594,174.634,229.217,174.808,227.928,175.46z"/>
				<path fill-rule="evenodd" clip-rule="evenodd" fill="#01020E" d="M240.188,174.959c-0.216,0.104-0.308,0.368-0.202,0.586
					c0.104,0.218,0.367,0.31,0.588,0.203c1.004-0.461,2.221-0.441,3.178,0.13c0.208,0.124,0.48,0.055,0.605-0.153
					c0.123-0.207,0.055-0.48-0.154-0.604C242.891,174.338,241.546,174.424,240.188,174.959z"/>
				<g>
					<path fill-rule="evenodd" clip-rule="evenodd" fill="#01020E" d="M239.553,186.375c0.064,1.954-1.466,3.589-3.419,3.653
						c-1.952,0.065-3.589-1.466-3.652-3.419h0.005c-0.011-0.336,0.256-0.62,0.591-0.631l5.839-0.193
						c0.337-0.011,0.621,0.255,0.631,0.591L239.553,186.375z"/>
					<path fill-rule="evenodd" clip-rule="evenodd" fill="#D64341" d="M238.326,189.173c-0.59,0.51-1.352,0.829-2.192,0.856
						c-0.687,0.023-1.333-0.152-1.887-0.472c0.247-0.735,1.024-1.304,1.979-1.371C237.137,188.122,237.951,188.533,238.326,189.173z
						"/>
					<path fill-rule="evenodd" clip-rule="evenodd" fill="#FFFFFF" d="M233.275,185.972l5.487-0.181
						c0.107,0.604-0.153,1.227-0.558,1.374c-0.491,0.178-4.466,0.206-4.758-0.098C233.308,186.921,233.273,186.435,233.275,185.972z
						"/>
				</g>
				<path fill-rule="evenodd" clip-rule="evenodd" fill="#0F1630" d="M260.657,201.815c0,0,1.271,0.783,2.114,1.515
					c0.843,0.731,5.026,7.191,8.966,19.029c0,0-9.628,0.915-12.356,7.671C254.788,221.598,251.255,208.395,260.657,201.815z"/>
				<path fill-rule="evenodd" clip-rule="evenodd" fill="#01051A" d="M260.657,201.815c0,0,1,0.615,1.814,1.266
					c-1.725,1.157-4.128,3.714-3.684,8.845c0.68,7.865,4.844,13.218,4.844,13.218v0.001c-1.766,1.129-3.37,2.701-4.251,4.886
					C254.788,221.598,251.255,208.395,260.657,201.815z"/>
				<path fill-rule="evenodd" clip-rule="evenodd" fill="#01020E" d="M243.65,180.699c0.096,0.03,0.189,0.063,0.284,0.103
					c0.192,0.082,0.417-0.01,0.497-0.202c0.081-0.191-0.01-0.416-0.202-0.497c-0.796-0.336-1.646-0.365-2.473-0.129
					c-0.36,0.103-0.764,0.267-1.075,0.476c-0.082,0.055-0.136,0.137-0.158,0.228c-0.028,0.076-0.033,0.162-0.008,0.246
					c0.063,0.198,0.277,0.31,0.48,0.246c0.97-0.264,2.002-0.119,2.794,0.525c0.161,0.131,0.403,0.106,0.534-0.055
					c0.131-0.163,0.105-0.403-0.056-0.535C244.073,180.945,243.867,180.811,243.65,180.699z"/>
				<path fill-rule="evenodd" clip-rule="evenodd" fill="#01020E" d="M228.74,180.699c-0.097,0.03-0.191,0.063-0.285,0.103
					c-0.191,0.082-0.417-0.01-0.498-0.202c-0.081-0.191,0.01-0.416,0.202-0.497c0.796-0.336,1.646-0.365,2.473-0.129
					c0.362,0.103,0.765,0.267,1.076,0.476c0.082,0.055,0.136,0.137,0.157,0.228c0.029,0.076,0.033,0.162,0.008,0.246
					c-0.063,0.198-0.276,0.31-0.479,0.246c-0.971-0.264-2.002-0.119-2.795,0.525c-0.162,0.131-0.403,0.106-0.535-0.055
					c-0.131-0.163-0.105-0.403,0.057-0.535C228.316,180.945,228.523,180.811,228.74,180.699z"/>
				<path fill-rule="evenodd" clip-rule="evenodd" fill="#C8926E" d="M273.559,272.085h-39.553
					c-16.891,0-30.711,13.819-30.711,30.712h27.678c19.855,0,33.495-3.812,39.913-20.459
					C271.901,279.703,272.831,276.168,273.559,272.085z"/>
				<path fill-rule="evenodd" clip-rule="evenodd" fill="#BE865E" d="M273.559,272.085h-23.69c1.729,0.888,4.467,2.895,4.467,6.695
					c0,5.556-3.085,18.452-21.539,18.452h-28.991c-0.334,1.807-0.51,3.666-0.51,5.564h27.678c19.855,0,33.495-3.812,39.913-20.459
					C271.901,279.703,272.831,276.168,273.559,272.085z"/>
				<path fill-rule="evenodd" clip-rule="evenodd" fill="#F4AD85" d="M262.344,271.179c-0.907-2.948-6.917-4.099-10.609-2.037
					c-0.52,0.289-1.268,1.332-3.373,1.23c-0.64-0.03-1.256,1.092-0.109,1.63c1.731,0.812,3.607,0.177,4.195,0.463
					c2.252,1.092,1.267,6.714,2.162,6.907c0.896,0.195,1.872-0.975,1.872-0.975s0.74,1.209,1.637,0.43
					c0.897-0.781,0.897-0.781,0.897-0.781s1.48,0.313,1.987-0.623c0.507-0.936,0.507-0.936,0.507-0.936s1.134,0.232,1.403-0.78
					C263.182,274.696,262.886,272.588,262.344,271.179z"/>
				<path fill-rule="evenodd" clip-rule="evenodd" fill="#EF8871" d="M247.771,270.692c-0.265,0.368-0.261,0.962,0.481,1.31
					c1.731,0.812,3.607,0.177,4.195,0.463c2.252,1.092,1.267,6.714,2.162,6.907c0.896,0.195,1.872-0.975,1.872-0.975
					s0.74,1.209,1.637,0.43c0.897-0.781,0.897-0.781,0.897-0.781s1.48,0.313,1.987-0.623c0.507-0.936,0.507-0.936,0.507-0.936
					s1.134,0.232,1.403-0.78c0.12-0.448,0.128-1.114,0.052-1.84l-2.038,1.02c0,0-0.039,0.429-0.584,0.701
					c-0.547,0.273-1.325,0.156-1.325,0.156s-0.313,0.313-1.054,0.507c-0.74,0.195-1.285-0.234-1.285-0.234s0.115,0.43-0.976,0.352
					c-1.092-0.078-1.169-1.949-1.365-3.509c-0.194-1.56-1.442-1.598-2.456-1.364C250.979,271.703,248.654,271.509,247.771,270.692z"
					/>
				<path fill-rule="evenodd" clip-rule="evenodd" fill="#0F1630" d="M228.582,395.018h-4.705c-1.141,0-2.072,0.932-2.072,2.071
					v1.527c0,1.141,0.932,2.072,2.072,2.072h4.705c1.141,0,2.072-0.932,2.072-2.072v-1.527
					C230.654,395.949,229.723,395.018,228.582,395.018z"/>
				<path fill-rule="evenodd" clip-rule="evenodd" fill="#01020E" d="M235.889,398.337H216.57c-1.199,0-2.18,0.981-2.18,2.181v1.606
					c0,1.199,0.98,2.181,2.18,2.181h19.318c1.199,0,2.18-0.981,2.18-2.181v-1.606C238.068,399.318,237.088,398.337,235.889,398.337z
					"/>
				<path fill-rule="evenodd" clip-rule="evenodd" fill="#FFFFFF" d="M306.965,148.525c0.129,10.572,4.802,32.149,4.902,33.353
					s0,2.707-1.504,3.61c-1.504,0.903-30.889-7.821-32.392-8.224c-1.504-0.401-3.811,2.808-4.213,6.62c0,0,0,1.103,1.254,1.805
					c1.254,0.702,31.689,10.529,35.4,11.432c3.711,0.902,12.437-0.602,12.937-9.227c0.502-8.624-5.017-40.038-5.566-42.657
					C315.354,133.666,306.837,137.955,306.965,148.525z"/>
				<path fill-rule="evenodd" clip-rule="evenodd" fill="#E2ECF7" d="M305.99,148.655c0.112,9.256,5.777,32.019,5.878,33.223
					c0.1,1.203,0,2.707-1.505,3.61c4.483,0.618,1.866-8.336-0.296-17.74c-2.164-9.403-2.036-17.691-0.957-22.695
					s3.559-5.006,5.887-5.719C310.96,136.145,305.878,139.4,305.99,148.655L305.99,148.655z M279.463,177.692
					c-0.083,1.917-0.098,4.057,0.147,5.308c0.521,2.664,24.497,10.136,29.63,11.566c5.132,1.428,11.705,0.17,13.649-4.037
					c-1.932,6.295-9.181,7.393-12.477,6.592c-3.711-0.902-34.146-10.73-35.401-11.433c-1.253-0.702-1.253-1.804-1.253-1.804
					c0.402-3.812,2.709-7.02,4.213-6.62C278.141,177.311,278.667,177.462,279.463,177.692z"/>
				<path fill-rule="evenodd" clip-rule="evenodd" fill="#EF8871" d="M273.357,175.911c0.603,0.436,1.197,0.777,1.464,0.896
					c0.501,0.226,2.382,0.903,2.382,0.903s0.477,0.149,0.378,1.027c-0.101,0.878-1.089,4.525-2.258,5.366c0,0-0.451,0.175-0.752,0.1
					s-2.858-1.002-3.735-1.328c-0.193-0.072-0.571-0.121-1.043-0.153C271.312,180.543,272.47,178.148,273.357,175.911z"/>
				<g>
					<path fill-rule="evenodd" clip-rule="evenodd" fill="#0C0E0E" d="M263.034,107.407L263.034,107.407
						c0.315,0.314,0.314,0.83,0,1.144L242.6,129.037c-1.087,1.089-1.557-0.73-1.145-1.145l20.436-20.485
						C262.204,107.091,262.719,107.092,263.034,107.407z"/>
					<path fill-rule="evenodd" clip-rule="evenodd" fill="#0C0E0E" d="M262.764,107.136l4.194,4.194
						c0.165,0.166,0.165,0.437,0,0.602l0,0c-0.166,0.166-0.437,0.166-0.603,0l-4.193-4.194c-0.166-0.166-0.166-0.437-0.001-0.602
						h0.001C262.327,106.971,262.598,106.971,262.764,107.136z"/>
					<path fill-rule="evenodd" clip-rule="evenodd" fill="#0C0E0E" d="M261.56,108.34l4.194,4.194c0.165,0.166,0.165,0.436,0,0.602
						l0,0c-0.166,0.166-0.436,0.166-0.603,0l-4.193-4.195c-0.166-0.166-0.166-0.436,0-0.601l0,0
						C261.123,108.174,261.394,108.174,261.56,108.34z"/>
					<path fill-rule="evenodd" clip-rule="evenodd" fill="#0C0E0E" d="M260.355,109.543l4.195,4.195
						c0.164,0.166,0.164,0.436,0,0.601l-0.001,0.001c-0.166,0.166-0.436,0.166-0.603,0l-4.193-4.195
						c-0.166-0.166-0.166-0.436,0-0.601l0.001-0.001C259.919,109.378,260.19,109.378,260.355,109.543z"/>
					<path fill-rule="evenodd" clip-rule="evenodd" fill="#0C0E0E" d="M259.151,110.748l4.195,4.194
						c0.165,0.167,0.165,0.437,0,0.602v0.001c-0.167,0.166-0.437,0.166-0.603,0l-4.193-4.195c-0.167-0.166-0.167-0.437,0-0.602l0,0
						C258.716,110.582,258.986,110.582,259.151,110.748z"/>
					<path fill-rule="evenodd" clip-rule="evenodd" fill="#0C0E0E" d="M257.947,111.952l4.195,4.194
						c0.165,0.166,0.165,0.437,0,0.602l0,0c-0.167,0.166-0.437,0.166-0.603,0l-4.193-4.194c-0.167-0.166-0.167-0.437,0-0.602l0,0
						C257.512,111.786,257.783,111.786,257.947,111.952z"/>
					<path fill-rule="evenodd" clip-rule="evenodd" fill="#0C0E0E" d="M256.744,113.156l4.194,4.194
						c0.165,0.166,0.165,0.437,0,0.602l0,0c-0.167,0.166-0.437,0.166-0.603,0l-4.193-4.194c-0.166-0.166-0.166-0.437,0-0.602l0,0
						C256.309,112.99,256.579,112.99,256.744,113.156z"/>
					<path fill-rule="evenodd" clip-rule="evenodd" fill="#0C0E0E" d="M255.54,114.359l4.194,4.195c0.166,0.166,0.166,0.437,0,0.602
						l0,0c-0.166,0.166-0.437,0.166-0.603,0l-4.193-4.194c-0.166-0.167-0.166-0.437,0-0.602v-0.001
						C255.104,114.193,255.375,114.193,255.54,114.359z"/>
					<path fill-rule="evenodd" clip-rule="evenodd" fill="#0C0E0E" d="M254.336,115.563l4.194,4.195
						c0.166,0.166,0.166,0.436,0,0.601v0.001c-0.166,0.166-0.437,0.166-0.602,0l-4.194-4.195c-0.166-0.166-0.166-0.436,0-0.601
						v-0.001C253.9,115.397,254.171,115.397,254.336,115.563z"/>
					<path fill-rule="evenodd" clip-rule="evenodd" fill="#0C0E0E" d="M253.133,116.767l4.194,4.194
						c0.165,0.166,0.165,0.437,0,0.602h-0.001c-0.165,0.167-0.436,0.167-0.602,0l-4.194-4.194c-0.166-0.166-0.166-0.437,0-0.602l0,0
						C252.696,116.602,252.967,116.602,253.133,116.767z"/>
				</g>
				<path fill-rule="evenodd" clip-rule="evenodd" fill="#F4AD85" d="M207.7,265.566c0,0,0.89,1.317,0.589,2.093
					c-0.302,0.775-2.916-0.294-3.406-2.093h-7.736c0,0,0.991-1.626,3.771-2.513C203.697,262.168,206.861,262.327,207.7,265.566z"/>
			</g>
			<path fill-rule="evenodd" clip-rule="evenodd" fill="#EF8871" d="M249.587,122.038c2.299-2.377,3.118-3.509,3.353-2.612
				s-1.481,4.483-1.56,5.888c-0.078,1.403-0.663,1.637-0.896,1.053C250.25,125.781,249.587,122.038,249.587,122.038z"/>
			<path fill-rule="evenodd" clip-rule="evenodd" fill="#F4AD85" d="M250.736,118.959c-0.371-0.625-1.754-1.892-2.301-1.638
				c-0.545,0.254-0.564,1.091-0.564,1.091s-0.916-0.371-1.307,0.02c-0.39,0.39-1.17,1.326-1.17,1.326s-0.779-0.097-1.247,0.449
				c-0.468,0.545-0.234,1.56-0.234,1.56s-1.013,0.117-1.228,1.072c-0.215,0.954,0.663,4.113,1.677,4.132
				c1.013,0.02,0.993-0.546,0.993-0.546s0.995,0.605,1.404,0.253c0.41-0.351,0.215-1.442,0.215-1.442s0.487,0.644,0.994,0.351
				s0.253-1.229,0.253-1.229s0.487,0.956,1.501,0.195c1.014-0.76-0.098-4.971-0.098-4.971L250.736,118.959z"/>
			<path fill-rule="evenodd" clip-rule="evenodd" fill="#0C0E0E" d="M251.929,117.971l4.194,4.194c0.165,0.166,0.165,0.437,0,0.602
				l0,0c-0.166,0.166-0.437,0.166-0.603,0l-4.194-4.194c-0.165-0.166-0.165-0.437,0-0.602h0.001
				C251.492,117.806,251.763,117.806,251.929,117.971z"/>
		</g>
	</g>
</g>
<g id="DESIGNED_BY_FREEPIK">
</g>
</svg>
